<svg width="89" height="66" viewBox="0 0 89 66" fill="none" xmlns="http://www.w3.org/2000/svg">
<path d="M29.5195 4.4248C31.0409 2.87745 33.5353 2.87745 35.0566 4.4248L60.4756 30.2783C61.9608 31.789 61.9608 34.211 60.4756 35.7217L35.0566 61.5752C33.5353 63.1226 31.0409 63.1226 29.5195 61.5752L4.10059 35.7217C2.61525 34.211 2.61525 31.789 4.10059 30.2783L29.5195 4.4248Z" stroke="#00FFF0" stroke-width="1.553"/>
<path d="M31.3623 23.3701V26.7743H26.7405V40.8135H22.4915V26.7743H17.8698V23.3701H31.3623ZM42.7382 40.9874C41.0983 40.9874 39.5908 40.6064 38.2159 39.8444C36.8575 39.0824 35.7725 38.0222 34.9608 36.6639C34.1656 35.2889 33.7681 33.7483 33.7681 32.0421C33.7681 30.3359 34.1656 28.8036 34.9608 27.4452C35.7725 26.0869 36.8575 25.0267 38.2159 24.2647C39.5908 23.5027 41.0983 23.1217 42.7382 23.1217C44.3782 23.1217 45.8774 23.5027 47.2357 24.2647C48.6107 25.0267 49.6874 26.0869 50.466 27.4452C51.2611 28.8036 51.6587 30.3359 51.6587 32.0421C51.6587 33.7483 51.2611 35.2889 50.466 36.6639C49.6708 38.0222 48.5941 39.0824 47.2357 39.8444C45.8774 40.6064 44.3782 40.9874 42.7382 40.9874ZM42.7382 37.1111C44.1297 37.1111 45.2396 36.6473 46.0679 35.7196C46.9127 34.792 47.3351 33.5661 47.3351 32.0421C47.3351 30.5015 46.9127 29.2757 46.0679 28.3646C45.2396 27.4369 44.1297 26.9731 42.7382 26.9731C41.3302 26.9731 40.2037 27.4287 39.3589 28.3398C38.5306 29.2508 38.1165 30.485 38.1165 32.0421C38.1165 33.5827 38.5306 34.8168 39.3589 35.7445C40.2037 36.6556 41.3302 37.1111 42.7382 37.1111ZM67.5647 23.3701V26.7743H62.943V40.8135H58.694V26.7743H54.0722V23.3701H67.5647ZM69.9705 32.067C69.9705 30.3442 70.3432 28.8119 71.0887 27.4701C71.8341 26.1117 72.8695 25.0598 74.1947 24.3144C75.5365 23.5524 77.0522 23.1714 78.7419 23.1714C80.8126 23.1714 82.5851 23.718 84.0594 24.8113C85.5337 25.9046 86.5193 27.3955 87.0163 29.284H82.3449C81.997 28.5551 81.5 28.0002 80.854 27.6192C80.2245 27.2382 79.5039 27.0477 78.6922 27.0477C77.3835 27.0477 76.3233 27.5032 75.5116 28.4143C74.6999 29.3254 74.2941 30.5429 74.2941 32.067C74.2941 33.591 74.6999 34.8085 75.5116 35.7196C76.3233 36.6307 77.3835 37.0863 78.6922 37.0863C79.5039 37.0863 80.2245 36.8958 80.854 36.5148C81.5 36.1338 81.997 35.5788 82.3449 34.8499H87.0163C86.5193 36.7384 85.5337 38.2293 84.0594 39.3226C82.5851 40.3993 80.8126 40.9377 78.7419 40.9377C77.0522 40.9377 75.5365 40.565 74.1947 39.8196C72.8695 39.0575 71.8341 38.0056 71.0887 36.6639C70.3432 35.3221 69.9705 33.7898 69.9705 32.067Z" fill="white"/>
</svg>
