<svg width="249" height="234" viewBox="0 0 249 234" fill="none" xmlns="http://www.w3.org/2000/svg">
<path d="M28.7977 51.2599C29.0365 50.1062 30.6668 50.0393 30.9944 51.1709C34.1612 62.1122 43.3639 90.542 57.2888 105.554C79.9617 129.998 95.244 169.866 81.0204 190.697C81.0204 190.697 2.78218 176.965 28.7977 51.2599Z" fill="#5E96FF"/>
<path opacity="0.43" d="M31.0896 66.8896C31.1203 67.2478 31.1741 67.541 31.2182 67.8588L31.3684 68.7929L31.6893 70.6558C31.9116 71.8958 32.1529 73.1319 32.3943 74.3682C32.8859 76.8388 33.4081 79.3029 33.953 81.7624C35.0517 86.6792 36.2835 91.5656 37.5886 96.4325C38.8868 101.302 40.3213 106.134 41.8575 110.935C43.3979 115.734 45.0068 120.513 46.7721 125.236C50.2834 134.688 54.3123 143.958 58.9798 152.906C61.3602 157.355 63.8582 161.743 66.6053 165.978C69.3818 170.191 72.3392 174.288 75.5818 178.151C75.6523 178.235 75.7775 178.246 75.8615 178.176C75.9434 178.107 75.9559 177.986 75.8911 177.902L75.8894 177.9C72.8104 173.928 69.9504 169.798 67.2992 165.537C64.6356 161.282 62.222 156.877 59.9265 152.415C57.6329 147.951 55.5195 143.395 53.5103 138.794C51.5025 134.192 49.6862 129.509 47.8968 124.817C44.3569 115.415 41.3206 105.827 38.5503 96.1661C37.1753 91.332 35.8977 86.4696 34.7067 81.5857C34.1072 79.1447 33.5301 76.698 32.9835 74.2444L32.1926 70.5582L31.8162 68.712L31.6384 67.7878C31.585 67.4842 31.5226 67.1586 31.4868 66.8909L31.4809 66.8467C31.4666 66.7389 31.3676 66.6632 31.2598 66.6775C31.1551 66.6915 31.0809 66.7856 31.0896 66.8896Z" fill="white"/>
<path d="M66.5944 26.0411C67.1281 25.0482 68.6414 25.4316 68.6331 26.5588C68.5523 37.4564 69.236 66.0385 77.9104 83.6042C92.0344 112.205 95.1729 152.935 76.4463 168.159C76.4463 168.159 8.44418 134.222 66.5944 26.0411Z" fill="#BDD0FB"/>
<path opacity="0.43" d="M64.428 40.9979C64.3582 41.3355 64.3276 41.6187 64.2812 41.9222L64.164 42.8199L63.9495 44.6157C63.8148 45.8136 63.6986 47.013 63.5825 48.2125C63.3588 50.6122 63.1649 53.0145 62.9931 55.4186C62.6586 60.2274 62.4547 65.0445 62.3231 69.8638C62.1846 74.6832 62.1814 79.5067 62.2806 84.328C62.3838 89.1491 62.5554 93.9708 62.8855 98.7842C63.5269 108.41 64.6935 118.011 66.5335 127.49C67.5036 132.219 68.5978 136.926 69.9627 141.558C71.3609 146.179 72.956 150.743 74.8774 155.17C74.92 155.268 75.0339 155.313 75.1319 155.27C75.2275 155.229 75.2726 155.12 75.2355 155.023L75.2345 155.021C73.496 150.538 72.0009 145.971 70.7332 141.339C69.4521 136.711 68.4411 132.012 67.5541 127.295C66.6692 122.575 65.9741 117.821 65.3868 113.054C64.8013 108.286 64.4139 103.496 64.0524 98.705C63.3704 89.1175 63.2019 79.4975 63.2955 69.8822C63.3527 65.0741 63.507 60.2666 63.7461 55.463C63.8618 53.061 63.9995 50.6598 64.1671 48.2606L64.4466 44.6644L64.6045 42.8686L64.6933 41.9724C64.7271 41.6795 64.7586 41.3637 64.7986 41.1093L64.8053 41.0663C64.8218 40.9616 64.7504 40.8634 64.6457 40.847C64.5442 40.8313 64.4487 40.8985 64.428 40.9979Z" fill="white"/>
<path d="M182.574 233.497H77.875V122.589C77.875 120.162 79.8424 118.194 82.2693 118.194H179.777C182.204 118.194 184.171 120.162 184.171 122.589V231.9C184.171 232.782 183.456 233.497 182.574 233.497Z" fill="url(#paint0_linear_60_2995)"/>
<path d="M248.82 233.828H156.179V166.166C156.179 163.739 158.146 161.771 160.573 161.771H244.426C246.853 161.771 248.82 163.739 248.82 166.166L248.82 233.828Z" fill="url(#paint1_linear_60_2995)"/>
<path d="M84.912 233.847H0V170.248C0 167.821 1.96736 165.854 4.39429 165.854H80.5177C82.9446 165.854 84.912 167.821 84.912 170.248V233.847Z" fill="url(#paint2_linear_60_2995)"/>
<path d="M66.1419 183.787C66.1109 183.775 49.4746 154.641 47.2266 151.899C46.8484 151.438 46.2631 151.203 45.6708 151.274L41.0273 151.827L35.5723 163.629L44.6603 158.336C43.761 164.555 55.4359 173.798 59.4398 177.171C59.8462 177.513 59.8796 178.126 59.5125 178.51L57.9141 180.183C60.5384 182.844 63.5667 184.552 66.9845 185.342L66.1419 183.787Z" fill="url(#paint3_linear_60_2995)"/>
<path d="M58.8386 179.28C58.8386 179.28 57.8184 179.61 57.4729 180.518C57.3077 180.953 57.4859 181.446 57.8639 181.716C59.5438 182.92 65.085 186.806 67.6421 187.567C67.8517 187.629 68.0511 187.439 68.0039 187.226C67.8727 186.632 67.4483 185.446 66.0807 183.709L66.2035 183.957C66.3587 184.271 66.0167 184.598 65.7116 184.426C64.0014 183.46 60.5178 181.347 58.8386 179.28Z" fill="url(#paint4_linear_60_2995)"/>
<path d="M59.661 190.939C59.6331 190.921 57.1371 184.907 57.1093 184.889C54.8208 170.956 49.2372 159.023 47.5906 155.883C47.3135 155.355 46.7879 155.006 46.1936 154.955L41.5343 154.558L33.8037 165.011L43.7748 161.667C41.6355 167.575 51.1982 178.99 54.4367 183.103C54.7654 183.52 54.6741 184.127 54.2369 184.429L52.3328 185.744C54.3645 188.881 56.9844 191.166 60.1716 192.631L59.661 190.939Z" fill="url(#paint5_linear_60_2995)"/>
<path d="M53.4219 185.046C53.4219 185.046 52.3561 185.162 51.8339 185.982C51.5841 186.374 51.6589 186.893 51.9744 187.234C53.3759 188.753 58.0161 193.68 60.3663 194.942C60.5589 195.046 60.7927 194.901 60.7897 194.682C60.7814 194.074 60.6058 192.826 59.618 190.849L59.6879 191.116C59.7764 191.455 59.3754 191.706 59.1114 191.476C57.6319 190.184 54.648 187.41 53.4219 185.046Z" fill="url(#paint6_linear_60_2995)"/>
<path d="M19.7255 152.355C19.7255 152.355 15.5106 158.624 15.1647 161.484C14.8188 164.344 16.3302 165.332 20.7419 165.697C33.8704 166.782 40.3422 162.848 40.3422 162.848C41.2403 157.122 41.8793 155.665 49.3798 152.551C49.3798 152.551 39.893 153.305 37.9837 152.564C36.0743 151.823 19.7255 152.355 19.7255 152.355Z" fill="#0754E6"/>
<path d="M36.534 117.231C36.534 117.231 33.5983 113.757 30.4772 118.019C29.912 118.791 27.7408 118.154 26.9449 119.77C26.5339 120.604 25.6463 121.078 24.7318 120.909C22.4544 120.489 18.7318 120.453 16.8938 124.022C15.4909 126.746 16.574 128.341 17.9764 129.25C19.0064 129.917 19.374 131.273 18.7512 132.33C18.1538 133.345 18.0415 134.719 19.584 136.372C23.0408 140.077 29.8837 134.021 29.8837 134.021L35.3169 121.182L36.534 117.231Z" fill="url(#paint7_linear_60_2995)"/>
<path d="M31.1253 151.526C31.1253 151.526 36.0337 146.852 38.4498 143.757C39.7558 142.083 40.166 139.881 39.562 137.846C38.4589 134.129 36.4986 130.28 36.3198 129.681C36.0457 128.763 30.5422 128.801 30.5422 128.801C30.5422 128.801 19.7122 135.83 15.457 147.736L20.2359 149.224C20.2359 149.224 23.0636 144.48 25.8575 141.464C25.8575 141.464 21.023 147.85 20.8527 150.465L31.1253 151.526Z" fill="#0754E6"/>
<path d="M40.4768 153.369L36.7886 149.356L32.5292 150.503C32.5292 150.503 27.5633 151.273 24.7212 150.503C21.8791 149.734 21.8791 149.734 21.8791 149.734L15.4564 147.734L14.4478 150.585C14.1917 151.309 14.4491 152.113 15.0749 152.557C15.6306 152.952 16.2819 153.386 16.697 153.568C17.5428 153.938 36.1809 153.684 36.1809 153.684L40.4768 153.369Z" fill="url(#paint8_linear_60_2995)"/>
<path d="M34.323 122.183L30.624 129.062C30.8682 130.563 34.65 130.605 35.2342 129.709C35.2937 129.618 35.3276 129.512 35.3502 129.405L37.5629 124.809C37.6579 124.361 36.4293 122.851 36.0249 122.636L34.5547 121.853C33.9885 121.552 36.3508 121.528 34.323 122.183Z" fill="url(#paint9_linear_60_2995)"/>
<path d="M41.8106 120.568C41.8106 120.568 42.228 122.892 40.4016 125.847C38.5751 128.802 36.7562 128.668 35.8321 127.615C34.908 126.561 33.8011 124.806 34.3048 121.859C34.8084 118.912 41.1796 117.605 41.8106 120.568Z" fill="url(#paint10_linear_60_2995)"/>
<path d="M36.5142 122.179C36.5142 122.179 39.4717 118.294 41.7424 121.681L41.7042 122.85C41.7042 122.85 44.657 122.712 44.3367 119.991C44.0166 117.269 41.6058 115.41 38.2639 116.34C34.9219 117.27 32.9691 118.329 32.5917 120.649C32.2143 122.969 34.1089 122.59 34.1089 122.59C34.1089 122.59 34.8325 120.989 35.7065 120.88C36.5804 120.771 36.2646 122.037 36.2646 122.037L36.5142 122.179Z" fill="url(#paint11_linear_60_2995)"/>
<path d="M35.8371 122.076C35.8371 122.076 37.3692 120.088 35.9747 119.675C34.58 119.262 34.6322 121.623 34.723 122.501L35.8371 122.076Z" fill="url(#paint12_linear_60_2995)"/>
<path d="M28.2681 154.957C28.281 154.958 28.294 154.958 28.3071 154.958L45.2711 154.94C45.6905 154.939 46.03 154.599 46.0296 154.18C46.0291 153.76 45.6876 153.413 45.2694 153.421L28.3054 153.44C27.886 153.44 27.5464 153.78 27.5469 154.2C27.5473 154.606 27.8668 154.937 28.2681 154.957Z" fill="url(#paint13_linear_60_2995)"/>
<path d="M60.521 139.556H46.3933C45.3512 139.556 44.4026 140.157 43.958 141.1L37.4268 154.949H54.9837C55.6553 154.949 56.2588 154.538 56.5057 153.914L61.5703 141.099C61.8629 140.358 61.3173 139.556 60.521 139.556Z" fill="url(#paint14_linear_60_2995)"/>
<path d="M50.5672 146.656C50.261 147.607 50.4872 148.531 51.0723 148.719C51.6575 148.908 52.38 148.289 52.6862 147.338C52.9923 146.387 52.7662 145.463 52.181 145.275C51.5959 145.087 50.8733 145.705 50.5672 146.656Z" fill="#91B3FA"/>
<path d="M211.05 138.458H209.096V159.59H211.05V138.458Z" fill="#7D97F4"/>
<path d="M218.628 159.997H201.514V158.888C201.514 158.798 201.587 158.725 201.677 158.725H218.452C218.549 158.725 218.628 158.804 218.628 158.901L218.628 159.997Z" fill="#7D97F4"/>
<path d="M221.866 137.678C221.866 138.907 220.861 139.912 219.633 139.912H201.23C200.002 139.912 198.997 138.907 198.997 137.678V135.659C198.997 134.431 200.002 133.426 201.23 133.426H219.633C220.861 133.426 221.866 134.431 221.866 135.659V137.678Z" fill="#7D97F4"/>
<path d="M199.19 155.845C199.19 155.845 193.61 159.867 194.579 162.57C194.579 162.57 200.684 159.935 201.422 157.861C202.159 155.786 201.297 154.869 201.297 154.869L199.19 155.845Z" fill="url(#paint15_linear_60_2995)"/>
<path d="M200.027 152.476L200.939 155.113C201.077 155.511 200.939 155.965 200.583 156.19C200.405 156.302 200.161 156.406 199.828 156.482C199.358 156.588 198.873 156.371 198.647 155.946L197.556 153.891L200.027 152.476Z" fill="url(#paint16_linear_60_2995)"/>
<path d="M208.906 128.734C208.906 128.734 197.446 130.721 192.529 135.262C187.613 139.804 197.042 154.291 197.042 154.291C197.042 154.291 198.587 154.281 200.459 152.677C200.459 152.677 194.868 141.781 199.686 138.604C205.103 135.032 211.345 134.227 211.345 134.227L209.017 129.084L208.906 128.734Z" fill="url(#paint17_linear_60_2995)"/>
<path d="M195.547 161.075C196.774 160.507 200.249 158.075 200.835 157.967C201.42 157.86 202.436 158.548 202.436 158.548C202.436 158.548 202.683 158.993 202.419 159.768C201.603 160.755 199.793 162.636 197.358 163.337C195.568 163.852 194.315 163.372 193.535 162.809C193.964 162.156 194.73 161.453 195.547 161.075Z" fill="url(#paint18_linear_60_2995)"/>
<path d="M197.36 163.337C199.794 162.636 201.605 160.755 202.421 159.769C202.242 160.292 201.83 160.967 200.95 161.758C198.768 163.72 194.599 164.427 193.712 164.291C193.001 164.181 193.068 163.525 193.537 162.81C194.317 163.372 195.57 163.853 197.36 163.337Z" fill="#7D97F4"/>
<path d="M203.476 156.833C203.462 157.172 202.771 158.331 202.367 158.982C202.175 159.291 201.839 159.48 201.475 159.481C201.244 159.481 200.979 159.461 200.738 159.392C200.376 159.288 200.173 158.903 200.279 158.542L201.068 155.847L203.476 156.833Z" fill="url(#paint19_linear_60_2995)"/>
<path d="M219.937 125.294C219.937 125.294 222.483 132.1 219.937 134.17C217.392 136.239 211.32 138.569 209.964 142.692C208.607 146.814 206.305 154.826 203.225 157.663C203.225 157.663 201.061 157.453 200.251 156.591C200.251 156.591 202.005 144.631 203.162 141.562C204.164 138.905 205.641 135.069 208.47 132.925C209.28 132.311 209.139 131.339 208.763 130.394L208.08 128.675L219.937 125.294Z" fill="url(#paint20_linear_60_2995)"/>
<path d="M193.394 119.96C197.661 120.217 196.332 113.399 196.255 113.128L202.732 117.703C202.732 117.703 202.389 121.349 197.004 123.262C195.641 123.746 194.396 123.767 193.295 123.53C193.765 122.161 193.669 120.933 193.394 119.96Z" fill="url(#paint21_linear_60_2995)"/>
<path d="M193.394 119.96C197.661 120.217 196.332 113.399 196.255 113.128L202.732 117.703C202.732 117.703 202.389 121.349 197.004 123.262C195.641 123.746 194.396 123.767 193.295 123.53C193.765 122.161 193.669 120.933 193.394 119.96Z" fill="url(#paint22_linear_60_2995)"/>
<path d="M185.141 117.907C186.732 116.8 188.533 117.907 188.533 117.907C190.66 119.297 192.233 119.889 193.393 119.959C193.669 120.932 193.764 122.16 193.295 123.529C190.912 123.017 189.208 121.293 188.468 120.409C188.201 120.09 187.729 120.035 187.403 120.292C187.072 120.554 186.75 120.912 186.809 121.289C186.923 122.032 186.061 122.268 185.996 121.998C185.931 121.729 186.291 120.131 186.291 120.131C186.291 120.131 184.566 121.866 183.893 122.532C183.22 123.198 182.373 122.532 182.373 122.532C182.373 122.532 183.551 119.013 185.141 117.907Z" fill="url(#paint23_linear_60_2995)"/>
<path d="M213.294 102.597C213.294 102.597 207.085 100.112 195.53 109.651C195.53 109.651 194.565 111.649 195.618 113.427C196.671 115.205 206.703 123.869 208.082 128.674C208.082 128.674 214.059 130.616 220.239 126.011C220.239 126.011 219.694 112.639 213.294 102.597Z" fill="url(#paint24_linear_60_2995)"/>
<path d="M201.018 100.38L204.075 104.085C204.378 104.453 204.445 104.965 204.235 105.393C203.811 106.258 202.804 107.518 200.572 107.344C199.908 107.292 199.32 106.892 199.03 106.292L196.893 101.874L201.018 100.38Z" fill="url(#paint25_linear_60_2995)"/>
<path d="M218.099 118.467C218.82 115.531 211.52 108.987 211.52 108.987L213.293 102.598C213.293 102.598 229.057 113.092 225.04 121.532C224.464 122.742 223.699 123.589 222.812 124.156C221.543 120.739 219.52 119.172 218.099 118.467Z" fill="url(#paint26_linear_60_2995)"/>
<path d="M218.104 118.039C218.182 118.039 218.252 117.987 218.272 117.908C219.009 114.907 211.94 108.529 211.639 108.259C211.568 108.196 211.459 108.201 211.396 108.272C211.332 108.343 211.338 108.452 211.409 108.516C211.481 108.58 218.625 115.024 217.937 117.826C217.914 117.918 217.97 118.012 218.063 118.034C218.077 118.038 218.091 118.039 218.104 118.039Z" fill="url(#paint27_linear_60_2995)"/>
<path d="M207.043 118.214C207.043 118.214 215.698 121.575 217.811 119.047C217.954 118.875 218.048 118.68 218.1 118.467C219.521 119.172 221.543 120.739 222.813 124.156C218.26 127.065 210.479 122.537 208.375 121.203C208.029 120.983 207.614 120.906 207.212 120.989C206.401 121.158 204.999 121.405 204.243 121.289C203.136 121.118 201.548 125.02 199.755 123.817C199.755 123.817 201.29 117.034 207.043 118.214Z" fill="url(#paint28_linear_60_2995)"/>
<path d="M194.369 94.9371C194.338 95.0562 195.086 103.156 195.086 103.156L199.701 102.631L200.134 94.8489C200.134 94.8489 194.884 92.9429 194.369 94.9371Z" fill="url(#paint29_linear_60_2995)"/>
<path d="M198.931 96.4618L199.024 100.576C199.025 100.629 199.019 100.68 199.006 100.731C198.926 101.044 198.571 102.101 197.512 101.671C196.552 101.282 195.67 100.94 195.021 101.064C194.729 101.119 194.528 101.386 194.555 101.681C194.623 102.417 194.807 104.072 195.187 105.486C195.264 105.773 195.549 105.951 195.842 105.899C196.723 105.744 198.573 105.364 199.99 104.71C200.182 104.622 200.311 104.438 200.325 104.227C200.394 103.198 200.616 100.073 200.812 99.2117C200.997 98.4032 202.056 98.023 202.512 97.8951C202.661 97.8531 202.786 97.7526 202.859 97.6156C203.116 97.1311 203.524 95.9893 202.099 95.3467C201.801 95.2122 201.674 94.8609 201.818 94.5669C202.103 93.9817 202.298 93.0621 201.211 92.4245C200.106 91.7763 199.171 92.3004 198.647 92.7523C198.435 92.935 198.128 92.9326 197.909 92.7583C197.785 92.6591 197.615 92.6125 197.393 92.7193C197.093 92.8634 196.734 92.7034 196.622 92.3902C196.407 91.7886 195.907 91.1147 194.748 91.1847C192.692 91.3089 192.218 93.5203 192.606 94.8892C192.995 96.2582 195.217 95.9969 196.376 95.4555C197.258 95.0438 198.272 95.688 198.708 96.0204C198.846 96.1258 198.927 96.2883 198.931 96.4618Z" fill="url(#paint30_linear_60_2995)"/>
<path d="M200.831 100.71C200.831 100.71 200.257 98.2953 201.172 97.8199C202.087 97.3444 203.317 97.7785 202.854 99.431C202.278 101.487 200.831 100.71 200.831 100.71Z" fill="url(#paint31_linear_60_2995)"/>
<path d="M202.608 124.841C202.594 124.842 202.58 124.842 202.566 124.842L184.405 124.822C183.956 124.822 183.592 124.457 183.593 124.008C183.593 123.559 183.959 123.188 184.407 123.196L202.568 123.216C203.017 123.217 203.38 123.581 203.38 124.03C203.379 124.465 203.037 124.82 202.608 124.841Z" fill="url(#paint32_linear_60_2995)"/>
<path d="M168.078 108.353H183.203C184.319 108.353 185.334 108.996 185.81 110.006L192.803 124.832H174.006C173.287 124.832 172.641 124.393 172.377 123.724L166.955 110.004C166.642 109.212 167.226 108.353 168.078 108.353Z" fill="url(#paint33_linear_60_2995)"/>
<path d="M178.733 115.954C179.061 116.973 178.819 117.962 178.192 118.163C177.566 118.365 176.792 117.703 176.464 116.684C176.137 115.666 176.379 114.677 177.005 114.476C177.632 114.274 178.405 114.936 178.733 115.954Z" fill="#7D97F4"/>
<path d="M170.53 163.794C170.429 163.794 170.327 163.775 170.228 163.734C169.841 163.573 169.662 163.138 169.829 162.763L185.835 126.741C186.001 126.366 186.45 126.193 186.837 126.354C187.225 126.515 187.403 126.95 187.237 127.325L171.231 163.347C171.107 163.627 170.825 163.794 170.53 163.794Z" fill="#91B3FA"/>
<path d="M188.562 163.795C188.266 163.795 187.984 163.627 187.86 163.348L171.854 127.325C171.688 126.95 171.867 126.516 172.254 126.354C172.641 126.193 173.09 126.366 173.256 126.741L189.262 162.763C189.429 163.138 189.25 163.573 188.863 163.734C188.765 163.775 188.662 163.795 188.562 163.795Z" fill="#91B3FA"/>
<path d="M220.075 163.794C219.975 163.794 219.873 163.775 219.774 163.734C219.387 163.573 219.208 163.138 219.375 162.763L235.381 126.741C235.547 126.366 235.996 126.193 236.383 126.354C236.77 126.515 236.949 126.95 236.783 127.325L220.777 163.347C220.653 163.627 220.371 163.794 220.075 163.794Z" fill="#91B3FA"/>
<path d="M238.106 163.795C237.811 163.795 237.529 163.627 237.405 163.348L221.399 127.325C221.233 126.95 221.411 126.516 221.799 126.354C222.186 126.193 222.635 126.366 222.801 126.741L238.807 162.763C238.974 163.138 238.795 163.573 238.408 163.734C238.309 163.775 238.207 163.795 238.106 163.795Z" fill="#91B3FA"/>
<path d="M239.983 125.628C240.023 125.392 239.968 125.148 239.831 124.962C239.694 124.776 239.49 124.669 239.275 124.669H166.461C166.178 124.669 165.915 124.83 165.762 125.097C165.61 125.364 165.59 125.699 165.708 125.986L166.497 127.898C166.678 128.336 167.07 128.616 167.5 128.616H238.776C239.177 128.616 239.521 128.298 239.597 127.857L239.983 125.628Z" fill="#91B3FA"/>
<path d="M119.006 117.614C119.005 117.561 119.009 117.508 119.022 117.455C119.813 114.318 123.049 112.71 123.049 112.71L124.605 112.832C125.5 115.597 126.077 116.947 125.933 117.702C125.929 117.723 125.922 117.743 125.917 117.764C124.633 117.878 121.991 117.953 119.006 117.614Z" fill="url(#paint34_linear_60_2995)"/>
<path d="M125.917 117.762C125.847 118.015 125.661 118.211 125.423 118.261C123.597 118.645 120.694 118.336 119.476 118.177C119.207 118.142 119.01 117.893 119.006 117.612C121.991 117.952 124.633 117.877 125.917 117.762Z" fill="url(#paint35_linear_60_2995)"/>
<path d="M121.769 110.288L122.45 113.568C122.5 113.808 122.685 113.988 122.908 114.009C123.182 114.035 123.572 114.05 123.964 113.993C124.315 113.941 124.56 113.584 124.498 113.201L124.024 110.288H121.769Z" fill="url(#paint36_linear_60_2995)"/>
<path d="M139.138 117.735C137.476 117.689 136.617 117.493 136.172 117.312C136.171 117.477 136.172 117.645 136.177 117.819C136.183 118.005 136.321 118.154 136.491 118.153L145.616 118.094C145.908 118.092 146.078 117.754 145.952 117.487C144.755 117.586 141.708 117.807 139.138 117.735Z" fill="url(#paint37_linear_60_2995)"/>
<path d="M145.954 117.488C145.943 117.465 145.934 117.441 145.918 117.419C145.112 116.293 143.06 114.051 139.003 113.078L137.058 113.017C137.058 113.017 136.191 114.523 136.175 117.312C136.619 117.494 137.479 117.689 139.141 117.736C141.71 117.808 144.758 117.587 145.954 117.488Z" fill="url(#paint38_linear_60_2995)"/>
<path d="M136.695 110.067C136.717 110.212 136.984 112.416 137.087 113.271C137.111 113.474 137.259 113.631 137.444 113.653C137.775 113.693 138.312 113.729 138.781 113.633C139.034 113.581 139.217 113.338 139.217 113.055V109.595L136.695 110.067Z" fill="url(#paint39_linear_60_2995)"/>
<path d="M123.067 67.2148C123.067 67.2148 119.954 94.8919 121.683 112.19C121.683 112.19 123.759 112.19 124.797 111.844C124.797 111.844 128.033 84.7831 129.079 77.0395C129.119 76.7476 129.535 76.7343 129.593 77.0233C130.884 83.538 135.957 109.086 136.56 111.498C136.56 111.498 138.29 112.19 139.673 111.498C139.673 111.498 136.906 74.4801 134.83 67.9069L123.067 67.2148Z" fill="url(#paint40_linear_60_2995)"/>
<path d="M116.84 35.0402C116.84 35.0402 129.986 32.9645 140.365 35.7322L139.673 46.457C139.673 46.457 136.905 61.3334 134.83 67.9067C134.83 67.9067 126.873 69.2906 123.067 67.2148C123.067 67.2148 119.953 48.5328 118.224 45.7651C118.224 45.7651 116.494 38.4998 116.84 35.0402Z" fill="url(#paint41_linear_60_2995)"/>
<path d="M125.973 25.5879L124.663 34.4446C124.663 34.4446 128.322 36.1254 130.884 34.3724L130.333 28.1219L125.973 25.5879Z" fill="url(#paint42_linear_60_2995)"/>
<path d="M122.759 46.986C122.759 46.986 93.0531 38.9001 107.803 18.1055L108.801 19.5184C108.801 19.5184 104.357 33.6029 119.078 34.9412C119.078 34.9412 122.891 44.7747 122.759 46.986Z" fill="url(#paint43_linear_60_2995)"/>
<path d="M122.759 46.986C122.759 46.986 93.0531 38.9001 107.803 18.1055L108.801 19.5184C108.801 19.5184 104.357 33.6029 119.078 34.9412C119.078 34.9412 122.891 44.7747 122.759 46.986Z" fill="url(#paint44_linear_60_2995)"/>
<path d="M107.703 18.2129C107.703 18.2129 107.368 14.1979 109.375 13.8633C111.383 13.5288 112.052 15.5362 112.387 16.54C112.721 17.5437 109.375 19.5511 108.706 19.5511C108.037 19.5511 107.703 18.2129 107.703 18.2129Z" fill="url(#paint45_linear_60_2995)"/>
<path d="M133.475 47.9908C133.475 47.9908 163.181 39.9049 148.431 19.1104L147.433 20.5233C147.433 20.5233 151.877 34.6078 137.155 35.9461C137.155 35.9461 133.343 45.7795 133.475 47.9908Z" fill="url(#paint46_linear_60_2995)"/>
<path d="M133.475 47.9908C133.475 47.9908 163.181 39.9049 148.431 19.1104L147.433 20.5233C147.433 20.5233 151.877 34.6078 137.155 35.9461C137.155 35.9461 133.343 45.7795 133.475 47.9908Z" fill="url(#paint47_linear_60_2995)"/>
<path d="M148.53 19.2167C148.53 19.2167 148.864 15.2018 146.857 14.8673C144.849 14.5327 144.18 16.5401 143.846 17.5439C143.511 18.5477 146.857 20.5551 147.526 20.5551C148.195 20.555 148.53 19.2167 148.53 19.2167Z" fill="url(#paint48_linear_60_2995)"/>
<path d="M130.538 20.9951C130.538 20.9951 133.468 26.5089 133.092 28.7362C132.717 30.9635 129.086 30.8036 125.916 28.9947L123.701 23.041L130.538 20.9951Z" fill="url(#paint49_linear_60_2995)"/>
<path d="M126.057 26.0702C126.186 26.0131 126.234 25.8555 126.157 25.7376C125.922 25.379 125.482 24.6476 125.342 24.0073C125.342 24.0073 124.815 23.67 126.682 23.2232C128.549 22.7764 131.333 22.0828 131.918 20.4938C132.488 18.9446 130.989 15.0485 128.598 18.1529C128.507 18.2709 128.329 18.2736 128.238 18.1554C127.846 17.6452 126.815 16.5861 125.384 17.2281C124.045 17.8289 123.894 18.8102 123.912 19.3048C123.918 19.4504 123.788 19.5635 123.645 19.5362C122.968 19.4071 121.343 19.2962 120.585 20.9629C119.96 22.3357 120.366 23.1128 120.736 23.4929C120.856 23.616 120.803 23.8188 120.639 23.8691C120.194 24.0053 119.619 24.3826 119.677 25.4251C119.756 26.8662 121.368 26.7393 121.827 26.6736C121.902 26.6628 121.977 26.6886 122.028 26.7449C122.422 27.1802 124.194 29.0286 126.112 29.2514C126.278 29.2707 126.407 29.1067 126.353 28.9485L125.522 26.5355C125.484 26.4234 125.538 26.3004 125.646 26.2525L126.057 26.0702Z" fill="url(#paint50_linear_60_2995)"/>
<path d="M126.39 26.4127C126.39 26.4127 124.304 24.9818 124.152 26.1868C123.999 27.3917 126.03 27.9321 127.035 27.4828L126.39 26.4127Z" fill="url(#paint51_linear_60_2995)"/>
<path opacity="0.51" d="M94.1905 1.00018L97.0508 6.79579C97.3122 7.32535 97.8174 7.69245 98.4018 7.77734L104.798 8.7067C106.269 8.92055 106.857 10.7292 105.792 11.7672L101.164 16.2784C100.741 16.6906 100.548 17.2845 100.648 17.8666L101.74 24.2366C101.992 25.7024 100.453 26.8201 99.137 26.1281L93.4165 23.1207C92.8938 22.8459 92.2693 22.8459 91.7465 23.1207L86.0259 26.1281C84.7096 26.8201 83.171 25.7024 83.4224 24.2366L84.515 17.8666C84.6148 17.2845 84.4219 16.6907 83.999 16.2784L79.3709 11.7672C78.306 10.7292 78.8937 8.92055 80.3654 8.7067L86.7612 7.77734C87.3457 7.69245 87.8509 7.32535 88.1122 6.79579L90.9725 1.00018C91.6306 -0.333394 93.5323 -0.333394 94.1905 1.00018Z" fill="white"/>
<path d="M99.9723 25.2535C99.8607 25.2535 99.7494 25.2247 99.6414 25.1679L93.9209 22.1603C93.5094 21.9441 93.0463 21.8297 92.5816 21.8297C92.1167 21.8297 91.6536 21.9441 91.2422 22.1603L85.5216 25.1679C85.4136 25.2247 85.3023 25.2535 85.1908 25.2535C84.9852 25.2535 84.7797 25.1552 84.641 24.9909C84.5469 24.8792 84.4444 24.6894 84.4908 24.4189L85.5833 18.0491C85.7434 17.1151 85.434 16.1628 84.7556 15.5014L80.1275 10.9902C79.8422 10.712 79.9067 10.3882 79.9477 10.2619C79.9887 10.1357 80.1268 9.83575 80.5213 9.7784L86.917 8.84904C87.8546 8.71286 88.6647 8.12423 89.0841 7.27452L91.9444 1.47901C92.1208 1.12157 92.4487 1.08301 92.5815 1.08301C92.7142 1.08301 93.0421 1.12166 93.2185 1.47901L96.0788 7.27452C96.4982 8.12423 97.3084 8.71286 98.246 8.84904L104.642 9.7784C105.036 9.83575 105.174 10.1357 105.215 10.2619C105.256 10.3882 105.321 10.7119 105.035 10.9902L100.407 15.5014C99.7289 16.1627 99.4195 17.1151 99.5797 18.049L100.672 24.4189C100.719 24.6892 100.616 24.8791 100.522 24.9907C100.383 25.1553 100.178 25.2535 99.9723 25.2535Z" fill="url(#paint52_linear_60_2995)"/>
<path opacity="0.51" d="M86.5148 16.5021C86.4462 16.5021 86.3825 16.4584 86.3602 16.3896C86.1705 15.8061 85.8381 15.2713 85.3987 14.843L83.6379 13.1267C83.5736 13.0641 83.5724 12.9612 83.6351 12.8968C83.6977 12.8325 83.8007 12.8311 83.865 12.8938L85.6256 14.6101C86.1026 15.0751 86.4636 15.6557 86.6694 16.2891C86.6971 16.3744 86.6504 16.4662 86.565 16.494C86.5484 16.4995 86.5314 16.5021 86.5148 16.5021Z" fill="white"/>
<path opacity="0.51" d="M89.9714 21.7668C89.9129 21.7668 89.8564 21.7352 89.8273 21.6799C89.7855 21.6004 89.816 21.5021 89.8956 21.4603L90.6613 21.0577C91.2509 20.7478 91.9146 20.584 92.5806 20.584C93.2466 20.584 93.9103 20.7478 94.5001 21.0578C94.5796 21.0996 94.6101 21.198 94.5684 21.2775C94.5267 21.357 94.4283 21.3875 94.3489 21.3457C93.8057 21.0602 93.1943 20.9093 92.5807 20.9093C91.9672 20.9093 91.3558 21.0602 90.8127 21.3456L90.0469 21.7482C90.0228 21.7608 89.9969 21.7668 89.9714 21.7668Z" fill="white"/>
<path opacity="0.51" d="M97.9326 23.0599C97.8051 23.0599 97.6767 23.0411 97.5508 23.0026C97.4649 22.9763 97.4166 22.8855 97.4428 22.7996C97.469 22.7137 97.5597 22.6653 97.6458 22.6916C97.9752 22.7922 98.3297 22.7133 98.5941 22.4803C98.8593 22.2467 98.9768 21.9121 98.9168 21.5619L98.3506 18.261C98.1212 16.9227 98.5647 15.558 99.5369 14.6102L101.935 12.2724C102.214 12.0006 102.309 11.6171 102.188 11.2467C102.068 10.8762 101.766 10.6217 101.381 10.5657L98.0664 10.0841C96.7227 9.88891 95.5617 9.04543 94.9607 7.82772L93.4784 4.82444C93.306 4.47513 92.9706 4.26661 92.5811 4.26661C92.1916 4.26661 91.8561 4.47513 91.6838 4.82444L90.2015 7.82772C89.6005 9.04543 88.4395 9.88891 87.0958 10.0841L83.7815 10.5657C83.5838 10.5944 83.4036 10.6772 83.2601 10.8053C83.1931 10.865 83.0903 10.8592 83.0305 10.7922C82.9708 10.7252 82.9766 10.6224 83.0435 10.5626C83.2348 10.3919 83.4739 10.2817 83.7348 10.2438L87.0491 9.76221C88.2868 9.5824 89.3562 8.8054 89.9098 7.68368L91.3921 4.6804C91.617 4.22462 92.0726 3.94141 92.581 3.94141C93.0893 3.94141 93.5449 4.22462 93.7699 4.6804L95.2521 7.68368C95.8057 8.8054 96.8753 9.5824 98.113 9.76221L101.427 10.2438C101.93 10.317 102.34 10.6627 102.498 11.1462C102.655 11.6297 102.526 12.1505 102.162 12.5053L99.7638 14.8431C98.8681 15.7161 98.4596 16.9733 98.6711 18.2061L99.2372 21.507C99.3156 21.9641 99.1555 22.419 98.809 22.7243C98.5597 22.9439 98.2491 23.0599 97.9326 23.0599Z" fill="white"/>
<path opacity="0.51" d="M162.172 34.6316L163.54 39.3184C163.665 39.7467 163.993 40.086 164.416 40.2259L169.052 41.7562C170.119 42.1083 170.319 43.5309 169.391 44.1636L165.356 46.9127C164.987 47.164 164.766 47.5805 164.764 48.0266L164.741 52.9089C164.736 54.0323 163.445 54.6622 162.556 53.9746L158.695 50.9869C158.342 50.7139 157.877 50.632 157.452 50.7679L152.802 52.255C151.732 52.5973 150.734 51.5638 151.113 50.5064L152.761 45.9106C152.912 45.4907 152.846 45.0235 152.586 44.6614L149.734 40.6982C149.078 39.7862 149.753 38.5177 150.876 38.5517L155.756 38.6991C156.202 38.7126 156.626 38.5058 156.89 38.1461L159.778 34.2096C160.443 33.3036 161.857 33.553 162.172 34.6316Z" fill="white"/>
<path d="M163.291 53.4343C163.208 53.4197 163.129 53.3837 163.056 53.3273L159.195 50.3396C158.917 50.1246 158.587 49.9789 158.241 49.9179C157.896 49.857 157.536 49.8813 157.202 49.9882L152.551 51.4755C152.463 51.5036 152.377 51.5103 152.294 51.4957C152.141 51.4688 152.001 51.3687 151.919 51.2282C151.864 51.1328 151.813 50.9782 151.883 50.7831L153.531 46.1874C153.773 45.5136 153.667 44.7645 153.249 44.1835L150.398 40.2202C150.222 39.9758 150.312 39.7435 150.36 39.6549C150.407 39.5663 150.549 39.3613 150.85 39.3703L155.73 39.5178C156.445 39.5395 157.125 39.2079 157.549 38.6307L160.437 34.6942C160.615 34.4514 160.864 34.4657 160.963 34.4831C161.061 34.5006 161.3 34.5723 161.385 34.8613L162.752 39.5481C162.953 40.2353 163.479 40.7795 164.158 41.0037L168.795 42.5341C169.081 42.6285 169.144 42.8697 169.158 42.969C169.172 43.0683 169.177 43.3177 168.928 43.4872L164.894 46.2364C164.302 46.6395 163.947 47.3074 163.944 48.0232L163.921 52.9055C163.92 53.1128 163.819 53.2405 163.734 53.3113C163.61 53.4152 163.444 53.4613 163.291 53.4343Z" fill="url(#paint53_linear_60_2995)"/>
<path opacity="0.51" d="M154.427 45.1571C154.376 45.1481 154.334 45.1073 154.326 45.0532C154.262 44.5943 154.085 44.1527 153.814 43.7765L152.729 42.2687C152.69 42.2137 152.702 42.137 152.757 42.0973C152.812 42.0578 152.889 42.0702 152.929 42.1253L154.013 43.6331C154.307 44.0416 154.5 44.5209 154.57 45.0191C154.579 45.0862 154.532 45.1484 154.465 45.1579C154.452 45.1597 154.439 45.1593 154.427 45.1571Z" fill="white"/>
<path opacity="0.51" d="M156.311 49.5282C156.267 49.5205 156.229 49.4896 156.215 49.4446C156.194 49.38 156.23 49.3109 156.294 49.2902L156.917 49.0911C157.396 48.9378 157.911 48.903 158.407 48.9904C158.903 49.0777 159.375 49.2867 159.773 49.5946C159.827 49.6362 159.836 49.7133 159.795 49.7669C159.753 49.8206 159.676 49.8304 159.623 49.789C159.256 49.5053 158.821 49.3128 158.365 49.2323C157.908 49.1518 157.433 49.1839 156.992 49.325L156.369 49.5241C156.35 49.5305 156.33 49.5315 156.311 49.5282Z" fill="white"/>
<path opacity="0.51" d="M162.062 51.5338C161.968 51.517 161.874 51.4862 161.786 51.4411C161.725 51.4103 161.701 51.3364 161.732 51.2759C161.763 51.2155 161.837 51.1913 161.897 51.2222C162.129 51.3402 162.403 51.3281 162.631 51.1893C162.858 51.0504 162.99 50.8168 162.991 50.5484L163.003 48.0184C163.008 46.9926 163.517 46.0355 164.364 45.4579L166.455 44.0332C166.698 43.8674 166.819 43.5946 166.778 43.3033C166.737 43.0119 166.546 42.7829 166.266 42.6906L163.864 41.8976C162.89 41.5762 162.137 40.7964 161.849 39.8116L161.14 37.3829C161.058 37.1004 160.836 36.9013 160.546 36.8501C160.256 36.799 159.979 36.9102 159.805 37.1474L158.309 39.1874C157.702 40.0145 156.727 40.4897 155.702 40.4587L153.173 40.3823C153.022 40.3778 152.878 40.4157 152.754 40.4922C152.696 40.5278 152.621 40.5101 152.585 40.4524C152.549 40.3947 152.567 40.319 152.625 40.2833C152.789 40.1814 152.982 40.1308 153.181 40.1368L155.71 40.2132C156.654 40.2418 157.552 39.804 158.111 39.0421L159.607 37.0022C159.834 36.6926 160.211 36.5417 160.589 36.6083C160.967 36.675 161.269 36.9454 161.376 37.3141L162.085 39.7428C162.35 40.6499 163.044 41.3683 163.941 41.6644L166.343 42.4574C166.708 42.5777 166.968 42.8888 167.021 43.2691C167.075 43.6493 166.911 44.02 166.593 44.2362L164.503 45.6609C163.722 46.1929 163.253 47.0746 163.248 48.0194L163.237 50.5495C163.235 50.8998 163.056 51.2173 162.758 51.3989C162.544 51.5297 162.298 51.5752 162.062 51.5338Z" fill="white"/>
<defs>
<linearGradient id="paint0_linear_60_2995" x1="184.171" y1="175.846" x2="77.875" y2="175.846" gradientUnits="userSpaceOnUse">
<stop stop-color="#003FB7"/>
<stop offset="0.5" stop-color="#0755E9"/>
<stop offset="1" stop-color="#0446C3"/>
</linearGradient>
<linearGradient id="paint1_linear_60_2995" x1="168.05" y1="230.812" x2="315.418" y2="107.506" gradientUnits="userSpaceOnUse">
<stop stop-color="#FF9500"/>
<stop offset="0.269708" stop-color="#FFAA32"/>
<stop offset="0.516709" stop-color="#FFB246"/>
<stop offset="0.683003" stop-color="#FFAA33"/>
</linearGradient>
<linearGradient id="paint2_linear_60_2995" x1="10.8806" y1="231.001" x2="149.171" y2="118.608" gradientUnits="userSpaceOnUse">
<stop stop-color="#FF9500"/>
<stop offset="0.269708" stop-color="#FFAA32"/>
<stop offset="0.516709" stop-color="#FFB246"/>
<stop offset="0.683003" stop-color="#FFAA33"/>
</linearGradient>
<linearGradient id="paint3_linear_60_2995" x1="70.1294" y1="159.381" x2="43.9013" y2="174.352" gradientUnits="userSpaceOnUse">
<stop stop-color="#FEBBBA"/>
<stop offset="1" stop-color="#FF928E"/>
</linearGradient>
<linearGradient id="paint4_linear_60_2995" x1="66.7007" y1="174.35" x2="54.8865" y2="202.943" gradientUnits="userSpaceOnUse">
<stop stop-color="#4F52FF"/>
<stop offset="1" stop-color="#4042E2"/>
</linearGradient>
<linearGradient id="paint5_linear_60_2995" x1="67.5913" y1="163.116" x2="157.331" y2="106.937" gradientUnits="userSpaceOnUse">
<stop stop-color="#FEBBBA"/>
<stop offset="1" stop-color="#FF928E"/>
</linearGradient>
<linearGradient id="paint6_linear_60_2995" x1="62.119" y1="181.81" x2="44.7632" y2="207.418" gradientUnits="userSpaceOnUse">
<stop stop-color="#4F52FF"/>
<stop offset="1" stop-color="#4042E2"/>
</linearGradient>
<linearGradient id="paint7_linear_60_2995" x1="41.0288" y1="108.514" x2="29.625" y2="121.679" gradientUnits="userSpaceOnUse">
<stop stop-color="#09005D"/>
<stop offset="1" stop-color="#1A0F91"/>
</linearGradient>
<linearGradient id="paint8_linear_60_2995" x1="24.1923" y1="150.752" x2="-1.93494" y2="150.752" gradientUnits="userSpaceOnUse">
<stop stop-color="#FEBBBA"/>
<stop offset="1" stop-color="#FF928E"/>
</linearGradient>
<linearGradient id="paint9_linear_60_2995" x1="34.8253" y1="138.265" x2="34.2213" y2="128.854" gradientUnits="userSpaceOnUse">
<stop stop-color="#FEBBBA"/>
<stop offset="1" stop-color="#FF928E"/>
</linearGradient>
<linearGradient id="paint10_linear_60_2995" x1="33.9373" y1="130.302" x2="45.3061" y2="108.545" gradientUnits="userSpaceOnUse">
<stop stop-color="#FEBBBA"/>
<stop offset="1" stop-color="#FF928E"/>
</linearGradient>
<linearGradient id="paint11_linear_60_2995" x1="48.1405" y1="117.963" x2="32.2207" y2="121.157" gradientUnits="userSpaceOnUse">
<stop stop-color="#09005D"/>
<stop offset="1" stop-color="#1A0F91"/>
</linearGradient>
<linearGradient id="paint12_linear_60_2995" x1="31.335" y1="128.942" x2="42.7037" y2="107.185" gradientUnits="userSpaceOnUse">
<stop stop-color="#FEBBBA"/>
<stop offset="1" stop-color="#FF928E"/>
</linearGradient>
<linearGradient id="paint13_linear_60_2995" x1="25.39" y1="150.45" x2="38.8564" y2="154.867" gradientUnits="userSpaceOnUse">
<stop stop-color="#09005D"/>
<stop offset="1" stop-color="#1A0F91"/>
</linearGradient>
<linearGradient id="paint14_linear_60_2995" x1="60.864" y1="148.25" x2="-62.0647" y2="137.908" gradientUnits="userSpaceOnUse">
<stop stop-color="#09005D"/>
<stop offset="1" stop-color="#1A0F91"/>
</linearGradient>
<linearGradient id="paint15_linear_60_2995" x1="194.434" y1="151.792" x2="197.883" y2="158.576" gradientUnits="userSpaceOnUse">
<stop stop-color="#09005D"/>
<stop offset="1" stop-color="#1A0F91"/>
</linearGradient>
<linearGradient id="paint16_linear_60_2995" x1="200.992" y1="154.492" x2="197.556" y2="154.492" gradientUnits="userSpaceOnUse">
<stop stop-color="#FEBBBA"/>
<stop offset="1" stop-color="#FF928E"/>
</linearGradient>
<linearGradient id="paint17_linear_60_2995" x1="205.748" y1="145.4" x2="191.145" y2="124.933" gradientUnits="userSpaceOnUse">
<stop stop-color="#09005D"/>
<stop offset="1" stop-color="#1A0F91"/>
</linearGradient>
<linearGradient id="paint18_linear_60_2995" x1="196.434" y1="158.65" x2="208.393" y2="174.288" gradientUnits="userSpaceOnUse">
<stop stop-color="#09005D"/>
<stop offset="1" stop-color="#1A0F91"/>
</linearGradient>
<linearGradient id="paint19_linear_60_2995" x1="203.476" y1="157.664" x2="200.251" y2="157.664" gradientUnits="userSpaceOnUse">
<stop stop-color="#FEBBBA"/>
<stop offset="1" stop-color="#FF928E"/>
</linearGradient>
<linearGradient id="paint20_linear_60_2995" x1="211.01" y1="155.598" x2="210.205" y2="128.233" gradientUnits="userSpaceOnUse">
<stop stop-color="#09005D"/>
<stop offset="1" stop-color="#1A0F91"/>
</linearGradient>
<linearGradient id="paint21_linear_60_2995" x1="191.061" y1="128.985" x2="198.995" y2="116.566" gradientUnits="userSpaceOnUse">
<stop stop-color="#4F52FF"/>
<stop offset="1" stop-color="#4042E2"/>
</linearGradient>
<linearGradient id="paint22_linear_60_2995" x1="192.639" y1="118.403" x2="199.929" y2="115.606" gradientUnits="userSpaceOnUse">
<stop stop-color="#0653E5"/>
<stop offset="1" stop-color="#0041BA"/>
</linearGradient>
<linearGradient id="paint23_linear_60_2995" x1="193.623" y1="120.472" x2="182.373" y2="120.472" gradientUnits="userSpaceOnUse">
<stop stop-color="#FEBBBA"/>
<stop offset="1" stop-color="#FF928E"/>
</linearGradient>
<linearGradient id="paint24_linear_60_2995" x1="198.813" y1="106.999" x2="224.109" y2="125.396" gradientUnits="userSpaceOnUse">
<stop stop-color="#0653E5"/>
<stop offset="1" stop-color="#0041BA"/>
</linearGradient>
<linearGradient id="paint25_linear_60_2995" x1="204.357" y1="103.87" x2="196.893" y2="103.87" gradientUnits="userSpaceOnUse">
<stop stop-color="#FEBBBA"/>
<stop offset="1" stop-color="#FF928E"/>
</linearGradient>
<linearGradient id="paint26_linear_60_2995" x1="213.6" y1="106.377" x2="230.927" y2="115.211" gradientUnits="userSpaceOnUse">
<stop stop-color="#0653E5"/>
<stop offset="1" stop-color="#0041BA"/>
</linearGradient>
<linearGradient id="paint27_linear_60_2995" x1="254.503" y1="53.7855" x2="222.089" y2="102.25" gradientUnits="userSpaceOnUse">
<stop stop-color="#4F52FF"/>
<stop offset="1" stop-color="#4042E2"/>
</linearGradient>
<linearGradient id="paint28_linear_60_2995" x1="209.448" y1="120.608" x2="238.025" y2="170.267" gradientUnits="userSpaceOnUse">
<stop stop-color="#FEBBBA"/>
<stop offset="1" stop-color="#FF928E"/>
</linearGradient>
<linearGradient id="paint29_linear_60_2995" x1="196.129" y1="95.4471" x2="202.079" y2="109.732" gradientUnits="userSpaceOnUse">
<stop stop-color="#FEBBBA"/>
<stop offset="1" stop-color="#FF928E"/>
</linearGradient>
<linearGradient id="paint30_linear_60_2995" x1="202.284" y1="100.112" x2="191.492" y2="97.3261" gradientUnits="userSpaceOnUse">
<stop stop-color="#09005D"/>
<stop offset="1" stop-color="#1A0F91"/>
</linearGradient>
<linearGradient id="paint31_linear_60_2995" x1="206.918" y1="108.328" x2="201.59" y2="99.0226" gradientUnits="userSpaceOnUse">
<stop stop-color="#FEBBBA"/>
<stop offset="1" stop-color="#FF928E"/>
</linearGradient>
<linearGradient id="paint32_linear_60_2995" x1="205.689" y1="120.015" x2="191.272" y2="124.744" gradientUnits="userSpaceOnUse">
<stop stop-color="#09005D"/>
<stop offset="1" stop-color="#1A0F91"/>
</linearGradient>
<linearGradient id="paint33_linear_60_2995" x1="185.884" y1="110.564" x2="175.502" y2="121.537" gradientUnits="userSpaceOnUse">
<stop stop-color="#09005D"/>
<stop offset="1" stop-color="#1A0F91"/>
</linearGradient>
<linearGradient id="paint34_linear_60_2995" x1="120.026" y1="113.613" x2="125.135" y2="118.958" gradientUnits="userSpaceOnUse">
<stop stop-color="#0653E5"/>
<stop offset="1" stop-color="#0041BA"/>
</linearGradient>
<linearGradient id="paint35_linear_60_2995" x1="114.762" y1="227.61" x2="116.569" y2="201.822" gradientUnits="userSpaceOnUse">
<stop stop-color="#09005D"/>
<stop offset="1" stop-color="#1A0F91"/>
</linearGradient>
<linearGradient id="paint36_linear_60_2995" x1="123.676" y1="107.131" x2="122.289" y2="119.238" gradientUnits="userSpaceOnUse">
<stop stop-color="#FEBBBA"/>
<stop offset="1" stop-color="#FF928E"/>
</linearGradient>
<linearGradient id="paint37_linear_60_2995" x1="138.487" y1="80.6355" x2="136.681" y2="54.8475" gradientUnits="userSpaceOnUse">
<stop stop-color="#09005D"/>
<stop offset="1" stop-color="#1A0F91"/>
</linearGradient>
<linearGradient id="paint38_linear_60_2995" x1="137.61" y1="113.846" x2="141.834" y2="120.612" gradientUnits="userSpaceOnUse">
<stop stop-color="#0653E5"/>
<stop offset="1" stop-color="#0041BA"/>
</linearGradient>
<linearGradient id="paint39_linear_60_2995" x1="138.288" y1="108.678" x2="136.991" y2="120.004" gradientUnits="userSpaceOnUse">
<stop stop-color="#FEBBBA"/>
<stop offset="1" stop-color="#FF928E"/>
</linearGradient>
<linearGradient id="paint40_linear_60_2995" x1="123.878" y1="75.099" x2="149.753" y2="83.3577" gradientUnits="userSpaceOnUse">
<stop stop-color="#0653E5"/>
<stop offset="1" stop-color="#0041BA"/>
</linearGradient>
<linearGradient id="paint41_linear_60_2995" x1="130.71" y1="72.0961" x2="140.639" y2="34.6444" gradientUnits="userSpaceOnUse">
<stop stop-color="#FFA323"/>
<stop offset="1" stop-color="#FFA323"/>
</linearGradient>
<linearGradient id="paint42_linear_60_2995" x1="126.31" y1="40.6538" x2="128.919" y2="27.5089" gradientUnits="userSpaceOnUse">
<stop stop-color="#FEBBBA"/>
<stop offset="1" stop-color="#FF928E"/>
</linearGradient>
<linearGradient id="paint43_linear_60_2995" x1="113.404" y1="31.0661" x2="111.898" y2="89.4497" gradientUnits="userSpaceOnUse">
<stop stop-color="#E1473D"/>
<stop offset="1" stop-color="#E9605A"/>
</linearGradient>
<linearGradient id="paint44_linear_60_2995" x1="114.952" y1="50.1545" x2="123.717" y2="18.6071" gradientUnits="userSpaceOnUse">
<stop stop-color="#FFA323"/>
<stop offset="1" stop-color="#FFA323"/>
</linearGradient>
<linearGradient id="paint45_linear_60_2995" x1="111.46" y1="11.8989" x2="107.947" y2="23.4417" gradientUnits="userSpaceOnUse">
<stop stop-color="#FEBBBA"/>
<stop offset="1" stop-color="#FF928E"/>
</linearGradient>
<linearGradient id="paint46_linear_60_2995" x1="142.83" y1="32.071" x2="144.335" y2="90.4545" gradientUnits="userSpaceOnUse">
<stop stop-color="#E1473D"/>
<stop offset="1" stop-color="#E9605A"/>
</linearGradient>
<linearGradient id="paint47_linear_60_2995" x1="144.729" y1="51.1594" x2="153.494" y2="19.612" gradientUnits="userSpaceOnUse">
<stop stop-color="#FFA323"/>
<stop offset="1" stop-color="#FFA323"/>
</linearGradient>
<linearGradient id="paint48_linear_60_2995" x1="144.772" y1="12.9027" x2="148.285" y2="24.4456" gradientUnits="userSpaceOnUse">
<stop stop-color="#FEBBBA"/>
<stop offset="1" stop-color="#FF928E"/>
</linearGradient>
<linearGradient id="paint49_linear_60_2995" x1="132.093" y1="27.3528" x2="123.174" y2="21.9124" gradientUnits="userSpaceOnUse">
<stop stop-color="#FEBBBA"/>
<stop offset="1" stop-color="#FF928E"/>
</linearGradient>
<linearGradient id="paint50_linear_60_2995" x1="118.453" y1="16.1772" x2="129.976" y2="25.2786" gradientUnits="userSpaceOnUse">
<stop stop-color="#09005D"/>
<stop offset="1" stop-color="#1A0F91"/>
</linearGradient>
<linearGradient id="paint51_linear_60_2995" x1="129.75" y1="29.381" x2="121.725" y2="24.4862" gradientUnits="userSpaceOnUse">
<stop stop-color="#FEBBBA"/>
<stop offset="1" stop-color="#FF928E"/>
</linearGradient>
<linearGradient id="paint52_linear_60_2995" x1="80.3909" y1="21.053" x2="103.466" y2="6.95949" gradientUnits="userSpaceOnUse">
<stop stop-color="#FFA323"/>
<stop offset="1" stop-color="#FFA323"/>
</linearGradient>
<linearGradient id="paint53_linear_60_2995" x1="150.651" y1="50.1456" x2="168.311" y2="39.9108" gradientUnits="userSpaceOnUse">
<stop stop-color="#FFA323"/>
<stop offset="1" stop-color="#FFA323"/>
</linearGradient>
</defs>
</svg>
