<svg width="596" height="347" viewBox="0 0 596 347" fill="none" xmlns="http://www.w3.org/2000/svg">
<path d="M444.849 144.895H218.849C207.067 144.895 197.516 135.344 197.516 123.562V21.562C197.516 9.78 207.067 0.229004 218.849 0.229004H444.849C456.631 0.229004 466.182 9.78 466.182 21.562V123.562C466.183 135.344 456.631 144.895 444.849 144.895Z" fill="white"/>
<path d="M351.016 56.395C355.986 56.395 360.016 52.1417 360.016 46.895C360.016 41.6483 355.986 37.395 351.016 37.395C346.045 37.395 342.016 41.6483 342.016 46.895C342.016 52.1417 346.045 56.395 351.016 56.395Z" fill="#0755E9" fill-opacity="0.4"/>
<path d="M386.766 56.395C391.736 56.395 395.766 52.1417 395.766 46.895C395.766 41.6483 391.736 37.395 386.766 37.395C381.795 37.395 377.766 41.6483 377.766 46.895C377.766 52.1417 381.795 56.395 386.766 56.395Z" fill="#0755E9" fill-opacity="0.4"/>
<path d="M429.516 56.395C434.486 56.395 438.516 52.1417 438.516 46.895C438.516 41.6483 434.486 37.395 429.516 37.395C424.545 37.395 420.516 41.6483 420.516 46.895C420.516 52.1417 424.545 56.395 429.516 56.395Z" fill="#0755E9" fill-opacity="0.4"/>
<path d="M316.766 24.145H278.266V110.228H316.766V24.145Z" fill="#0755E9" fill-opacity="0.4"/>
<path d="M446.766 24.645H325.516V28.895H446.766V24.645Z" fill="#0755E9" fill-opacity="0.4"/>
<path d="M220.516 59.228H212.516V110.228H220.516V59.228Z" fill="#E3DCF9"/>
<path d="M234.516 40.228H226.516V110.228H234.516V40.228Z" fill="#E3DCF9"/>
<path d="M250.183 25.895H242.183V110.228H250.183V25.895Z" fill="#E3DCF9"/>
<path d="M266.849 25.895H258.849V110.228H266.849V25.895Z" fill="#E3DCF9"/>
<path d="M283.516 346.895C47.5156 346.895 5.51562 310.895 5.51562 310.895H595.516C595.516 310.895 543.516 346.895 283.516 346.895Z" fill="#EAEAEA"/>
<path d="M249.692 265.406C249.692 265.406 251.851 261.16 250.211 257.622C248.571 254.084 245.126 251.868 246.372 247.704C247.618 243.54 251.642 244.41 252.746 249.226C253.85 254.042 252.755 259.068 254.995 259.268C257.236 259.468 254.768 248.904 256.835 244.503C258.901 240.102 265.701 241.707 265.004 246.797C264.308 251.888 261.536 258.127 265.31 255.971C269.084 253.815 269.878 243.821 274.174 239.518C278.47 235.215 285.607 237.036 285.138 241.031C284.669 245.026 275.812 249.739 276.347 252.471C276.882 255.203 287.127 245.955 295.322 245.537C303.517 245.119 304.08 252.261 296.816 254.942C289.553 257.623 279.44 257.459 280.418 259.501C281.396 261.544 297.06 261.688 297.126 267.078C297.192 272.468 290.895 272.906 281.669 268.69C272.444 264.475 266.648 265.616 273.151 270.946C279.655 276.275 288.765 277.552 284.937 281.87C281.109 286.188 267.772 274.874 264.145 274.703C260.518 274.532 254.101 281.707 254.101 281.707L247.83 277.204L249.692 265.406Z" fill="#B8A9EA"/>
<path d="M241.329 250.809C241.329 250.809 240.847 246.07 237.554 243.982C234.261 241.894 230.165 241.894 228.96 237.717C227.755 233.541 231.61 232.095 235.145 235.548C238.679 239.002 240.476 243.821 242.469 242.776C244.461 241.732 236.671 234.182 236.028 229.363C235.385 224.544 241.972 222.215 244.14 226.873C246.309 231.531 247.353 238.278 249.361 234.422C251.369 230.567 246.63 221.732 247.915 215.789C249.2 209.845 256.188 207.516 257.955 211.13C259.722 214.744 254.822 223.499 256.75 225.507C258.677 227.515 262.292 214.195 268.958 209.41C275.624 204.625 279.961 210.327 275.303 216.512C270.645 222.696 262.051 228.029 263.978 229.218C265.905 230.407 279.158 222.054 282.129 226.551C285.101 231.049 280.041 234.824 270.001 236.269C259.962 237.715 255.705 241.811 264.058 242.774C272.411 243.738 280.764 239.883 279.88 245.585C278.997 251.287 261.658 248.987 258.516 250.806C255.374 252.624 253.858 262.13 253.858 262.13L246.147 261.735L241.329 250.809Z" fill="#E3DCF9"/>
<path d="M253.055 257.877C253.055 257.877 255.786 261.812 258.516 257.395C261.247 252.977 259.56 246.231 265.263 246.392C270.965 246.552 269.921 252.898 268.957 254.665C267.993 256.432 266.38 259.243 269.717 259.966C273.054 260.689 278.194 249.525 286.386 250.408C294.578 251.292 290.964 260.367 286.948 261.813C282.932 263.259 275.784 262.054 276.507 265.508C277.23 268.962 287.832 266.151 289.277 271.933C290.722 277.716 283.815 279.161 276.185 273.539C268.555 267.917 272.184 276.31 272.184 276.31L254.339 276.35C254.339 276.35 255.303 267.274 246.95 262.937C238.598 258.6 247.914 249.926 253.055 257.877Z" fill="#D3C0FF"/>
<path d="M278.223 310.52H248.445C247.153 310.52 246.106 309.473 246.106 308.181V276.309H280.562V308.181C280.562 309.473 279.514 310.52 278.223 310.52Z" fill="#B8A9EA"/>
<path d="M249.199 280.606H278.032C278.032 280.606 263.013 287.995 249.199 280.606Z" fill="#D3C0FF"/>
<path d="M327.454 70.0569L326.398 67.8759L324.851 59.0119L320.982 55.6358L314.58 46.0688L312.61 47.2648L316.339 55.4249L313.384 58.0979L313.666 59.9969L311.907 61.8969L312.259 63.1629L311.204 64.7108L312.54 69.1418L314.861 70.5489L316.69 73.0108L318.519 73.4328L319.364 74.7699L327.454 70.0569Z" fill="#FFCDA1"/>
<path d="M321.35 60.187L316.225 62.395L314.642 61.02L314.475 61.562L316.809 63.937L315.309 65.353L312.892 63.645L312.6 64.27L315.642 66.395L314.725 68.062L313.017 67.77L312.975 68.312L314.725 68.603L315.392 69.27L316.392 67.062L317.059 67.395L318.184 65.937L317.559 64.312L318.35 64.77L319.85 63.853L319.517 62.52L320.809 61.77L320.35 65.728L321.642 69.478L322.767 68.895L321.642 64.812L322.184 60.103L321.35 60.187Z" fill="#6F003D"/>
<path d="M315.142 59.728L318.35 57.77L316.767 55.603L316.184 56.062L317.142 57.437L314.85 59.312L315.142 59.728Z" fill="#6F003D"/>
<path d="M421.32 298.265C421.32 298.265 414.482 306.021 410.919 307.783C407.356 309.546 408.008 314.579 408.008 314.579L437.58 305.382C437.58 305.382 437.619 301.835 434.21 293.078C434.21 293.078 423.203 294.406 421.32 298.265Z" fill="#2B1F00"/>
<path d="M361.364 299.895C361.364 299.895 352.531 305.27 348.605 305.895C344.679 306.52 343.807 311.52 343.807 311.52H374.776C374.776 311.52 375.866 308.145 375.212 298.77C375.212 298.77 364.308 296.77 361.364 299.895Z" fill="#2B1F00"/>
<path d="M435.687 295.315C435.687 295.315 435.197 295.865 434.027 296.605C432.847 297.365 430.967 298.305 428.187 299.065C424.267 300.135 420.477 299.805 418.617 299.525C417.867 299.415 417.437 299.315 417.437 299.315L402.437 234.815L391.437 189.815L391.227 191.195L385.187 230.065C385.937 243.815 374.937 298.815 374.937 298.815L368.316 298.325L360.137 297.715L358.187 297.565C358.187 297.565 361.437 249.315 365.187 222.315C368.937 195.315 371.187 163.565 371.187 163.565L372.307 155.565L374.727 155.535L412.937 155.065L413.036 155.905L421.687 231.065L435.687 295.315Z" fill="#250B00"/>
<path d="M435.686 295.315C435.686 295.315 435.196 295.865 434.026 296.605C430.716 283.045 420.076 239.495 417.766 229.395C415.016 217.395 411.016 198.145 411.016 182.145C411.016 166.145 405.266 157.895 405.266 157.895L413.036 155.905L421.686 231.065L435.686 295.315Z" fill="#631E08"/>
<path d="M374.727 155.535L367.267 223.645L360.517 297.645L360.137 297.715L358.187 297.565C358.187 297.565 361.437 249.315 365.187 222.315C368.937 195.315 371.187 163.565 371.187 163.565L372.307 155.565L374.727 155.535Z" fill="#631E08"/>
<path d="M425.896 99.645L424.636 94.395L405.516 87.015C399.516 85.775 388.016 86.895 384.516 87.895C381.016 88.895 374.896 89.895 374.896 89.895L343.896 93.895H340.016L339.896 92.645L337.896 91.895L327.766 69.395L319.036 74.285L315.266 76.395C315.266 76.395 326.766 100.015 328.516 102.895C330.266 105.775 332.136 105.775 332.136 105.775L369.636 110.395C369.636 110.395 369.626 110.555 369.606 110.895C369.546 112.315 369.486 116.905 370.396 125.895C371.516 137.015 372.636 156.145 372.636 156.145L386.486 156.595L389.036 156.675L407.396 157.275L408.016 160.395C408.016 160.395 442.516 152.395 442.516 149.145C442.516 145.895 425.896 99.645 425.896 99.645ZM425.346 140.815L424.306 141.315L424.726 143.975L412.346 147.145L417.846 120.395L425.396 138.225L424.636 138.895L425.346 140.815Z" fill="#FF9500"/>
<path d="M407.596 66.5046L402.016 78.3846L401.356 87.2546L391.866 91.9946L390.036 90.7646L389.366 86.2446L389.236 85.1646L388.936 82.6846L382.666 80.9646L382.266 80.8546L382.106 73.1946L382.366 71.5846L380.326 68.9646L384.336 66.0046L384.406 62.0446L387.422 55.5826C387.422 55.5826 399.126 52.2946 403.916 57.8146C408.706 63.3246 407.596 66.5046 407.596 66.5046Z" fill="#FFCDA1"/>
<path d="M409.327 67.2348C408.437 68.7948 401.737 79.6648 401.737 79.6648C398.727 78.6648 396.167 74.9848 396.167 74.9848C397.667 75.5448 399.676 73.8648 400.286 72.4748C400.906 71.0848 401.187 67.2348 399.117 67.2348C397.057 67.2348 396.277 69.9048 396.277 69.9048C396.277 69.9048 393.987 69.4048 393.047 66.0048C393.037 65.9848 393.037 65.9548 393.027 65.9348C392.827 65.1848 392.796 64.4848 392.876 63.8548C392.886 63.6748 392.917 63.5048 392.957 63.3348C393.337 61.3948 394.607 60.1548 394.607 60.1548C390.637 57.9348 385.687 54.6848 385.687 54.6848L390.147 49.3948C390.147 49.3948 396.177 48.4748 398.977 49.3448C399.037 49.3648 399.087 49.3748 399.137 49.3948C399.137 49.3948 401.297 52.0148 403.917 52.7948C406.537 53.5748 408.707 57.0248 409.217 59.1448C409.717 61.2648 409.827 60.7648 410.437 62.5448C411.057 64.3348 410.217 65.6748 409.327 67.2348Z" fill="#6F003D"/>
<path d="M385.681 62.494C385.681 62.494 386.266 62.02 387.577 62.187C388.887 62.354 390.477 63.776 390.477 63.776L389.919 64.807C389.919 64.807 388.497 63.636 387.438 63.469C386.379 63.302 385.849 63.692 385.849 63.692L385.681 62.494Z" fill="#6F003D"/>
<path d="M387.27 65.7629C387.209 66.4379 386.985 66.9689 386.77 66.9489C386.555 66.9289 386.431 66.3669 386.493 65.6919C386.554 65.0169 386.778 64.4859 386.993 64.5059C387.207 64.5259 387.331 65.0889 387.27 65.7629Z" fill="#6F003D"/>
<path d="M399.956 69.4919C399.956 69.4919 399.594 68.7109 399.064 68.4879C398.534 68.2649 397.754 69.1289 397.252 69.8539C396.75 70.5789 397.559 70.3559 397.503 71.6939C397.447 73.0319 396.527 72.6979 396.722 73.2829C396.917 73.8679 397.893 73.9239 398.283 73.3389C398.673 72.7539 398.534 72.3909 398.311 72.0569C398.088 71.7219 398.088 70.4959 398.199 70.1329C398.311 69.7699 398.673 70.9139 398.868 70.6909C399.063 70.4679 398.45 69.2969 398.729 69.1579C399.008 69.0189 399.705 69.4649 399.677 70.3849C399.649 71.3039 400.374 70.9409 399.956 69.4919Z" fill="#DBA782"/>
<path d="M418.016 119.645C418.016 119.645 416.266 107.52 416.391 102.77C416.391 102.77 412.266 111.645 412.891 116.52C413.516 121.395 409.391 148.041 409.391 148.041L413.683 146.812L418.016 119.645Z" fill="#6F003D"/>
<path d="M376.184 120.062L409.017 121.229C409.017 121.229 389.85 128.562 376.184 120.062Z" fill="#6F003D"/>
<path d="M423.899 98.276C423.899 98.276 420.65 98.756 417.721 102.003C417.721 102.003 417.935 97.688 422.079 96.211C426.224 94.735 423.899 98.276 423.899 98.276Z" fill="#6F003D"/>
<path d="M371.516 97.0147L369.766 110.895C369.766 110.895 369.706 110.895 369.606 110.895C369.626 110.555 369.636 110.395 369.636 110.395L332.136 105.775C332.136 105.775 330.266 105.775 328.516 102.895C326.766 100.015 315.266 76.3947 315.266 76.3947L319.036 74.2847C320.876 80.3747 327.376 100.285 334.766 103.775C343.516 107.895 365.016 106.645 371.516 97.0147Z" fill="#6F003D"/>
<path d="M339.954 94.77L339.704 99.77C339.704 99.77 342.391 97.77 339.954 94.77Z" fill="#6F003D"/>
<path d="M337.891 92.895L336.703 97.145C336.703 97.145 339.204 97.02 337.891 92.895Z" fill="#6F003D"/>
<path d="M387.766 129.145C388.166 146.195 388.796 154.125 389.036 156.675L386.486 156.595C386.316 153.445 385.236 132.925 386.396 117.275C387.636 100.275 390.136 91.5146 390.136 91.5146L391.266 91.5847C391.266 91.5847 387.266 107.645 387.766 129.145Z" fill="#6F003D"/>
<path d="M401.629 83.8218L391.871 91.9908L396.61 98.1238L404.584 87.9198L401.629 83.8218Z" fill="#6F003D"/>
<path d="M391.871 91.9909L384.622 96.3589C384.622 96.3589 385.514 92.9389 386.592 90.3369C387.67 87.7349 389.473 86.8989 389.473 86.8989C389.473 86.8989 390.309 90.8569 391.871 91.9909Z" fill="#6F003D"/>
<path d="M403.294 166.167L387.393 171.687C385.926 172.196 384.323 171.42 383.814 169.953L375.122 144.917C374.613 143.45 375.389 141.847 376.856 141.338L392.757 135.818C394.224 135.309 395.827 136.085 396.336 137.553L405.028 162.589C405.538 164.055 404.762 165.658 403.294 166.167Z" fill="#AE3900"/>
<path d="M406.234 150.538L395.019 148.145L387.766 152.108L388.14 153.828L393.523 152.034L388.663 155.324L389.411 157.118L395.093 154.875L390.383 157.342L391.056 159.286L394.944 157.716L392.402 159.51L393.075 161.155L396.514 159.286C396.514 159.286 403.991 161.978 407.954 159.735L406.234 150.538Z" fill="#FFCDA1"/>
<path d="M393.766 78.0249C393.766 78.0249 393.266 83.2649 389.236 85.1649L388.936 82.6849L382.666 80.9649C384.736 80.9149 390.936 80.5349 393.766 78.0249Z" fill="#6F003D"/>
<path d="M382.766 73.27C382.766 73.27 384.391 74.02 385.224 74.812C386.057 75.604 383.141 75.812 383.141 75.812L382.766 73.27Z" fill="#6F003D"/>
<path d="M418.616 299.525C417.866 299.415 417.436 299.315 417.436 299.315L402.436 234.815L391.436 189.815C391.436 189.815 391.141 186.853 383.896 180.205L384.016 179.335C384.016 179.335 390.076 183.645 391.896 188.085C393.706 192.515 398.766 213.145 398.766 213.145L405.076 240.335L409.766 259.455L418.616 299.525Z" fill="#631E08"/>
<path d="M391.226 191.195L385.186 230.065C385.936 243.815 374.936 298.815 374.936 298.815L368.316 298.325C369.556 295.335 372.996 286.055 375.016 270.565C377.516 251.395 374.516 241.725 379.516 230.395C384.516 219.065 386.846 182.395 386.846 182.395C389.686 185.065 391.516 189.458 391.516 189.458L391.226 191.195Z" fill="#631E08"/>
<path d="M410.766 147.562L413.391 157.812L414.474 157.312L411.349 147.395L410.766 147.562Z" fill="#6F003D"/>
<path d="M425.559 144.228C425.559 144.228 430.309 145.603 431.559 145.77C432.809 145.937 431.351 145.353 429.392 143.645C427.434 141.937 425.559 144.228 425.559 144.228Z" fill="#6F003D"/>
<path d="M425.684 140.645L432.601 141.52C432.601 141.52 428.892 137.77 425.684 140.645Z" fill="#6F003D"/>
<path d="M411.704 157.489C411.704 158.162 411.228 158.708 410.641 158.708C410.054 158.708 409.578 158.162 409.578 157.489C409.578 156.816 410.054 156.27 410.641 156.27C411.228 156.27 411.704 156.816 411.704 157.489Z" fill="#6F003D"/>
<path d="M319.891 79.614L328.829 73.614L328.329 73.145L319.516 78.02L319.891 79.614Z" fill="#6F003D"/>
<path d="M409.326 67.2347C408.436 68.7947 401.736 79.6647 401.736 79.6647C398.726 78.6647 396.166 74.9847 396.166 74.9847C397.666 75.5447 399.676 73.8647 400.286 72.4747C400.906 71.0847 401.186 67.2347 399.116 67.2347C397.056 67.2347 396.276 69.9047 396.276 69.9047C396.276 69.9047 393.986 69.4047 393.046 66.0047C393.036 65.9847 393.036 65.9547 393.026 65.9347C392.916 65.5297 392.765 65.0447 392.757 64.4537C392.739 63.1067 393.224 62.6607 393.204 62.4007C393.234 62.5507 392.992 63.2777 393.151 63.5537C393.586 64.3107 394.096 65.1647 396.326 65.2747C400.136 65.4547 399.896 64.9547 401.206 67.0147C402.516 69.0847 403.016 65.5147 404.706 65.7047C406.396 65.8947 407.636 65.2047 407.956 63.5847C408.266 61.9547 407.326 60.7047 405.896 60.1447C404.456 59.5847 405.826 59.3347 407.206 59.8947C408.576 60.4547 406.826 56.5847 405.076 55.3347C403.326 54.0847 401.076 53.0847 399.766 51.2047C399.236 50.4447 399.026 49.8247 398.976 49.3447C399.036 49.3647 399.086 49.3747 399.136 49.3947C399.136 49.3947 401.296 52.0147 403.916 52.7947C406.536 53.5747 408.706 57.0247 409.216 59.1447C409.716 61.2647 409.826 60.7647 410.436 62.5447C411.056 64.3347 410.216 65.6747 409.326 67.2347Z" fill="#4C0131"/>
<path d="M397.516 180.728C397.516 180.728 404.016 208.061 406.349 220.395C408.682 232.728 410.516 244.395 414.849 255.228C419.182 266.061 425.182 294.061 425.182 294.061C425.182 294.061 415.516 259.645 412.599 253.478C409.682 247.311 406.099 222.895 405.432 220.061C404.766 217.228 396.766 184.228 397.516 180.728Z" fill="#631E08"/>
<path d="M216.448 299.978C216.448 299.978 225.281 305.353 229.206 305.978C233.132 306.603 234.004 311.603 234.004 311.603H203.035C203.035 311.603 203.027 303.436 203.681 294.061C203.681 294.061 213.504 296.853 216.448 299.978Z" fill="#2B1F00"/>
<path d="M174.349 293.895C174.349 293.895 176.016 303.562 181.182 307.895C186.349 312.228 186.015 314.395 186.015 314.395H163.348L164.348 296.062L174.349 293.895Z" fill="#2B1F00"/>
<path d="M204.473 98.978C204.473 98.978 215.181 121.561 217.681 136.728L209.723 135.478C209.723 135.478 201.265 105.728 204.473 98.978Z" fill="#0755E9"/>
<path d="M217.846 298.975C213.896 299.365 209.106 299.105 205.766 298.825C203.336 298.615 201.686 298.395 201.686 298.395C198.516 285.225 199.516 249.725 199.516 249.725L197.846 248.065C197.846 248.065 197.846 248.065 197.846 242.895C197.846 237.725 186.686 191.225 186.686 191.225C186.686 191.225 183.096 239.225 182.096 246.725C181.096 254.225 179.346 296.475 179.346 296.475L165.976 296.835L160.596 296.975C160.596 296.975 161.936 245.315 162.096 241.475C162.266 237.645 160.186 211.395 159.516 198.565C158.936 187.375 160.376 167.455 160.756 162.525C160.816 161.795 160.846 161.395 160.846 161.395L209.226 162.975L210.016 171.395C210.016 171.395 216.846 232.565 217.016 241.395C217.186 250.225 217.846 298.975 217.846 298.975Z" fill="#250B00"/>
<path d="M212.476 159.355L209.226 162.975L163.396 162.625L160.846 162.605L158.476 159.725L160.486 147.445L161.726 139.855C161.476 112.605 150.976 100.355 150.976 100.355L170.596 89.605C170.596 89.605 177.596 90.855 186.596 92.475C195.596 94.105 204.476 98.975 204.476 98.975C205.846 101.475 209.726 135.475 209.726 135.475L210.626 143.335L211.016 146.705L212.476 159.355Z" fill="#0755E9"/>
<path d="M211.016 146.705L194.346 146.475L164.596 152.475L163.396 162.625L160.846 162.605L158.476 159.725L160.486 147.445L167.846 127.975L159.346 108.145L152.596 102.565L152.686 101.225C152.686 101.225 160.766 103.895 163.936 111.145C167.096 118.395 168.936 123.065 168.936 123.065L179.186 127.225L178.766 128.315L171.516 127.975L210.626 143.335L211.016 146.705Z" fill="#5B0237"/>
<path d="M206.599 128.062L203.183 110.812L204.183 100.478L205.016 101.728L205.099 108.145L206.349 106.478L207.266 108.145L205.849 110.645L214.433 135.478L207.766 133.645L206.599 128.062Z" fill="#5B0237"/>
<path d="M187.406 91.3746L187.646 93.5446L185.686 94.8447L170.696 89.8547L171.416 85.7047L171.726 83.8746L171.676 83.6047L170.646 78.0647C169.066 77.7947 167.606 75.0247 168.306 73.0647C169.006 71.1047 170.476 70.7346 170.476 70.7346L170.746 63.4547L174.496 59.2047C183.686 55.7347 190.366 65.2447 190.366 65.2447V72.9046C191.126 76.7046 191.176 82.2447 191.176 82.2447L187.046 88.2247L187.406 91.3746Z" fill="#FFCDA1"/>
<path d="M175.313 62.4188C175.313 62.4188 175.639 68.2318 175.585 68.5038C175.531 68.7758 173.195 71.0568 173.195 71.0568L173.249 74.0988L170.967 73.7189L170.478 70.7348C170.478 70.7348 168.957 71.5998 168.251 73.3378L166.349 65.0258L168.794 62.4178L170.478 58.2888C170.478 58.2888 177.052 55.1918 182.702 55.6268C188.352 56.0618 191.394 58.8869 191.394 58.8869L190.905 59.9738C190.905 59.9738 192.644 61.0058 193.947 63.6678L190.307 67.5798L190.366 65.2418C190.366 65.2418 188.134 62.1479 183.19 61.4409C178.247 60.7349 175.313 62.4188 175.313 62.4188Z" fill="#6F003D"/>
<path d="M178.849 120.312L202.599 121.395L201.516 123.062L180.266 122.978L178.849 120.312Z" fill="#5B0237"/>
<path d="M150.974 100.353L147.224 108.853C147.224 108.853 149.099 127.353 151.974 135.603C154.849 143.853 161.599 147.228 161.599 147.228L172.099 136.228C172.099 136.228 162.599 104.353 150.974 100.353Z" fill="#0755E9"/>
<path d="M187.329 100.645L198.391 129.27L197.016 137.833L194.079 138.458L187.079 129.77L184.454 100.395L187.329 100.645Z" fill="#FF9500"/>
<path d="M173.015 131.812L178.765 133.979L211.598 135.229L217.681 136.729C217.681 136.729 217.598 140.229 215.598 143.646C213.598 147.063 182.348 143.896 177.015 142.646C171.682 141.395 173.015 131.812 173.015 131.812Z" fill="#F4A971"/>
<path d="M162.723 147.728C162.723 147.728 188.848 146.728 200.473 143.103C212.098 139.478 210.223 139.853 210.223 139.853L215.036 138.853L215.474 136.728L214.411 134.853L214.036 132.54L213.098 131.54L212.16 129.352L210.972 129.102L209.472 127.602L206.909 128.102L198.346 133.977L166.971 135.29C166.973 135.291 161.348 140.166 162.723 147.728Z" fill="#FFCDA1"/>
<path d="M177.766 133.812L176.849 131.687L175.391 131.478L174.474 129.437L172.599 129.187L170.599 126.978L168.808 127.478L167.099 126.812L162.891 129.353L160.766 132.937L161.808 133.728L164.433 131.395L165.683 130.978L163.016 134.312L161.808 137.145L163.016 137.978L165.516 134.812L167.933 133.562L165.974 135.687L165.141 138.77L166.141 139.353L168.308 136.353L171.641 134.187L170.099 136.478L169.683 138.27L171.058 138.812L172.516 136.687L177.766 133.812Z" fill="#F4A971"/>
<path d="M169.204 90.333L177.579 98.27L185.016 95.333L185.766 95.958L175.766 100.458L168.391 90.833L169.204 90.333Z" fill="#5B0237"/>
<path d="M186.079 95.083L191.516 98.208L191.391 94.395L192.204 95.145L192.266 100.145L184.704 96.083L185.016 95.333L186.079 95.083Z" fill="#5B0237"/>
<path d="M163.683 110.895L160.516 98.978L158.516 99.645L160.016 106.562L163.683 110.895Z" fill="#5B0237"/>
<path d="M182.641 97.02L184.454 100.395L187.329 100.645L187.704 97.708L185.016 96.02L182.641 97.02Z" fill="#FF9500"/>
<path d="M184.61 67.7178C184.61 67.7178 184.991 67.0678 186.277 66.7638C187.562 66.4598 189.55 67.2318 189.55 67.2318L189.391 68.3938C189.391 68.3938 187.648 67.7978 186.598 68.0138C185.547 68.2298 185.189 68.7818 185.189 68.7818L184.61 67.7178Z" fill="#6F003D"/>
<path d="M176.568 67.8017C176.568 67.8017 176.949 67.1518 178.235 66.8478C179.52 66.5438 181.508 67.3158 181.508 67.3158L181.349 68.4777C181.349 68.4777 179.606 67.8818 178.556 68.0978C177.505 68.3138 177.147 68.8657 177.147 68.8657L176.568 67.8017Z" fill="#6F003D"/>
<path d="M188.1 71.4929C188.148 72.3339 187.97 73.0289 187.702 73.0439C187.434 73.0589 187.179 72.3899 187.131 71.5479C187.083 70.7069 187.261 70.0129 187.529 69.9969C187.797 69.9809 188.052 70.6519 188.1 71.4929Z" fill="#6F003D"/>
<path d="M180.173 71.8117C180.221 72.6527 180.043 73.3467 179.775 73.3627C179.507 73.3777 179.252 72.7087 179.204 71.8667C179.156 71.0257 179.334 70.3317 179.602 70.3157C179.87 70.3007 180.126 70.9707 180.173 71.8117Z" fill="#6F003D"/>
<path d="M185.172 72.228C185.172 72.228 185.564 74.801 187.003 75.891L187.09 77.112L184.474 77.853C184.474 77.853 184.474 76.806 185.39 76.545C186.306 76.284 186.306 76.283 186.306 76.283C186.306 76.283 184.562 73.842 185.172 72.228Z" fill="#6F003D"/>
<path d="M186.724 79.603C186.724 79.603 181.599 80.27 179.807 79.895C179.807 79.895 181.682 80.937 184.515 80.687C187.349 80.437 186.724 79.603 186.724 79.603Z" fill="#6F003D"/>
<path d="M187.406 91.3749C185.736 91.4549 183.456 91.1849 180.426 90.1249C175.246 88.3149 172.646 86.6849 171.426 85.7049H171.415L171.726 83.8749L171.676 83.6049L170.646 78.0649C170.646 78.0649 172.005 82.5049 174.135 84.8449C177.325 86.4349 182.996 88.8549 187.046 88.2249L187.406 91.3749Z" fill="#6F003D"/>
<path d="M171.922 133.864L173.922 132.458L173.329 132.301L171.766 133.614L171.922 133.864Z" fill="#6F003D"/>
<path d="M167.953 133.395L171.921 130.833L170.796 130.801L167.484 133.301L167.953 133.395Z" fill="#6F003D"/>
<path d="M165.797 130.739L168.61 127.708H167.891L165.579 130.395L165.797 130.739Z" fill="#6F003D"/>
<path d="M168.346 253.225C166.516 254.395 164.346 286.065 165.016 291.225C165.346 293.705 165.696 295.565 165.976 296.835L160.596 296.975C160.596 296.975 161.936 245.315 162.096 241.475C162.266 237.645 160.186 211.395 159.516 198.565C158.936 187.375 160.376 167.455 160.756 162.525L169.516 162.395C169.516 162.395 167.016 167.225 167.846 177.895C168.686 188.565 166.846 236.895 167.186 241.895C167.516 246.895 177.186 246.395 178.186 248.225C179.186 250.065 170.186 252.065 168.346 253.225Z" fill="#631E08"/>
<path d="M176.766 182.77C176.766 182.77 174.891 199.895 176.266 214.395C177.641 228.895 177.141 240.395 177.141 240.395C177.141 240.395 179.016 224.645 178.516 219.02C178.016 213.395 176.266 200.77 176.891 195.645C177.516 190.52 176.766 182.77 176.766 182.77Z" fill="#631E08"/>
<path d="M176.641 255.145C176.84 254.67 173.766 290.645 173.766 290.645C173.766 290.645 172.391 265.27 176.641 255.145Z" fill="#631E08"/>
<path d="M186.686 191.225C186.686 191.225 188.266 185.395 192.266 182.478C196.266 179.561 196.349 176.061 196.349 176.061C196.349 176.061 193.516 180.394 190.099 182.394C186.683 184.395 186.686 191.225 186.686 191.225Z" fill="#631E08"/>
<path d="M203.266 253.515C203.266 253.515 202.516 258.395 204.136 264.645C205.686 270.595 205.766 296.345 205.766 298.825C203.336 298.615 201.686 298.395 201.686 298.395C198.516 285.225 199.516 249.725 199.516 249.725L197.846 248.065C197.846 248.065 197.846 248.065 197.846 242.895C197.846 237.725 186.686 191.225 186.686 191.225C186.686 191.225 187.346 184.605 190.686 183.065C190.686 183.065 196.846 215.725 200.686 226.065C204.516 236.395 201.516 242.895 202.516 245.275C203.516 247.645 206.766 249.275 206.636 251.645C206.516 254.015 203.266 253.515 203.266 253.515Z" fill="#631E08"/>
<path d="M205.848 179.228C205.848 179.228 213.681 228.728 214.015 242.228C214.348 255.728 213.015 292.895 213.015 292.895C213.015 292.895 212.848 240.395 212.515 237.395C212.182 234.395 203.515 186.395 205.848 179.228Z" fill="#631E08"/>
<path d="M166.516 166.895C166.516 166.895 191.266 168.77 207.016 165.895L167.516 165.27L166.516 166.895Z" fill="#631E08"/>
<path d="M20.7656 312.312C20.7656 312.312 34.7656 257.812 53.0156 256.312C71.2656 254.812 84.2656 303.562 87.2656 317.562" stroke="#D3C0FF" stroke-width="4" stroke-miterlimit="10" stroke-linecap="round"/>
<path d="M19.849 173.562C19.849 173.562 12.283 171.926 2.91704 174.82C-0.233957 175.794 -0.914958 180.026 1.77904 181.927C7.06504 185.657 13.571 192.908 14.349 206.228C15.682 229.061 11.891 241.645 21.516 253.645C29.129 263.136 45.849 265.52 58.016 263.02C70.183 260.52 77.1831 254.728 77.1831 254.728L41.183 228.561L35.85 176.728L19.849 173.562Z" fill="#D3C0FF"/>
<path d="M136.729 286.597C135.429 281.575 123.744 236.8 119.183 232.395C114.35 227.728 90.2656 225.645 90.2656 225.645C90.2656 225.645 70.6826 245.895 69.5156 255.728C69.5156 255.728 88.8486 256.895 111.183 246.895L129.016 290.395L129.839 290.045L129.828 290.083C129.828 290.083 141.078 293.521 141.578 292.583C142.012 291.77 137.846 287.673 136.729 286.597Z" fill="#FFCDA1"/>
<path d="M131.329 310.958C131.329 310.958 131.329 314.458 133.392 317.458C135.455 320.458 135.142 320.833 135.142 320.833L137.267 321.396C137.267 321.396 135.204 317.021 136.454 317.583C137.704 318.145 140.142 320.583 144.642 321.083C149.142 321.583 152.017 320.458 152.705 319.208C153.393 317.958 144.33 312.333 144.33 312.333L131.329 310.958Z" fill="#631E08"/>
<path d="M31.8904 228.395C31.8904 228.395 28.0154 241.145 33.1404 250.77C38.2654 260.395 72.5154 256.895 72.5154 256.895C72.5154 256.895 85.1404 231.395 90.2654 225.645L74.0154 224.895L31.8904 228.395Z" fill="#631E08"/>
<path d="M97.8076 251.728C97.8076 251.728 101.35 272.728 115.016 289.395C128.683 306.062 132.849 312.895 132.849 312.895C132.849 312.895 138.349 316.728 143.682 315.228C149.015 313.728 139.849 309.395 135.849 302.561C131.849 295.728 111.182 246.894 111.182 246.894C111.182 246.894 102.016 250.687 97.8076 251.728Z" fill="#F4A971"/>
<path d="M131.204 293.208C131.204 293.208 139.398 296.466 142.892 296.677C147.548 296.958 147.486 295.739 147.705 295.489C147.924 295.239 138.799 288.708 138.799 288.708C138.799 288.708 140.299 290.083 138.111 290.458C135.923 290.833 129.58 289.52 129.58 289.52L131.204 293.208Z" fill="#631E08"/>
<path d="M106.396 187.015L80.1856 211.975L63.5156 199.015L62.2156 178.125L61.7656 170.895L81.2656 197.475L102.636 181.015L105.776 186.025L106.396 187.015Z" fill="#FF9500"/>
<path d="M106.396 187.015L80.1858 211.975L63.5158 199.015L62.2158 178.125L64.8958 177.275C64.8958 177.275 66.6358 193.015 72.8958 199.895C79.1358 206.775 79.7658 208.645 83.8958 204.395C88.0158 200.145 92.3958 196.515 98.0158 192.515C103.636 188.515 105.136 185.895 105.136 185.895L105.776 186.025L106.396 187.015Z" fill="#6F003D"/>
<path d="M74.5956 224.895L67.5556 225.705L54.3056 227.245L30.0156 230.065C30.0156 222.475 35.2656 202.645 35.2656 202.645C24.2656 191.895 16.0156 168.725 16.0156 168.725L17.1856 166.225L17.0956 164.725L35.7156 155.785L36.1856 155.565C38.7456 155.425 41.5956 155.805 44.2556 156.385C49.7556 157.565 54.5156 159.565 54.5156 159.565C54.5156 159.565 59.3456 163.315 63.0956 170.815C66.8456 178.315 64.3456 181.475 65.0956 190.065C65.8456 198.645 74.5956 224.895 74.5956 224.895Z" fill="#250B00"/>
<path d="M74.5959 224.895L67.5559 225.705C65.9459 218.225 58.9959 186.165 56.0159 176.145C52.6359 164.775 44.5159 156.895 44.5159 156.895L44.2559 156.385C46.3059 156.825 48.2559 157.385 49.8859 157.905C50.5859 158.125 51.2259 158.335 51.7859 158.535H51.7959C53.4759 159.125 54.5159 159.565 54.5159 159.565C54.5159 159.565 59.3459 163.315 63.0959 170.815C66.8459 178.315 64.3459 181.475 65.0959 190.065C65.8459 198.645 74.5959 224.895 74.5959 224.895Z" fill="#FF9500"/>
<path d="M51.4216 146.645C49.7716 151.495 45.7056 151.725 44.9756 151.505C44.9456 151.495 44.9156 151.485 44.8856 151.475L44.4856 154.555L44.1556 157.065L42.8276 159.77L35.6546 156.815C35.6546 156.815 33.7846 147.665 32.4146 144.185C31.0346 140.705 28.6846 131.305 28.6846 131.305C28.6846 131.305 40.5046 122.155 47.8746 123.855C47.8746 123.855 51.3646 128.555 52.3346 133.175L52.4146 137.545C52.4146 137.545 53.2016 141.375 51.4216 146.645Z" fill="#FFCDA1"/>
<path d="M46.4629 124.567L43.6079 129.973L37.7159 132.16L36.9259 135.804L35.7719 136.958C35.7719 136.958 36.3789 141.088 37.4119 141.938L36.5619 142.545C36.5619 142.545 35.2259 140.419 34.6789 137.929C34.6789 137.929 33.0389 138.233 32.9779 141.391C32.9169 144.549 36.0149 145.582 36.0149 145.582L33.8279 148.194C33.8279 148.194 25.6279 143.456 23.6849 140.784L21.9839 135.318L26.3569 129.062H18.8259L15.9099 127.058C15.9099 127.058 15.6669 122.32 19.1289 119.344C22.5909 116.368 27.7539 117.036 27.7539 117.036L29.5149 119.526L29.5759 123.717C29.5759 123.717 34.6779 118.068 40.5699 116.428C46.4619 114.788 47.6159 115.517 47.6159 115.517L47.5549 116.55C47.5549 116.55 55.2079 120.498 56.9089 126.329C58.6099 132.16 52.2319 135.865 52.2319 135.865C52.2319 135.865 51.4439 126.267 46.4629 124.567Z" fill="#6F003D"/>
<path d="M34.8856 204.125C35.1256 203.185 35.2656 202.645 35.2656 202.645C24.2656 191.895 16.0156 168.725 16.0156 168.725L17.1856 166.225L17.0956 164.725L31.5756 157.775L33.0056 157.085L35.7156 155.785C37.4456 157.945 41.5156 163.315 45.9356 171.065C48.2756 175.185 50.0956 185.165 51.4256 195.645C51.7456 198.155 52.0456 200.685 52.3156 203.175C53.4956 214.285 54.1356 224.495 54.3056 227.245L30.0156 230.065C30.0156 226.255 31.3456 219.345 32.6556 213.415C33.5356 209.505 34.4056 206.015 34.8856 204.125Z" fill="#FF9500"/>
<path d="M52.3153 203.175C51.9653 204.545 51.2853 206.015 50.1353 207.515C46.0153 212.875 36.0253 213.395 32.6553 213.415C33.5353 209.505 34.4053 206.015 34.8853 204.125L51.1353 195.145C51.1353 195.145 51.2553 195.325 51.4253 195.645C51.7453 198.155 52.0453 200.685 52.3153 203.175Z" fill="#6F003D"/>
<path d="M56.7236 159.103L56.4316 152.561C56.4316 152.561 57.6816 150.353 58.4736 149.186C59.2656 148.019 60.6406 144.644 60.6406 144.644L61.2236 145.352C61.2236 145.352 61.3066 147.31 60.5566 149.06C60.5566 149.06 63.7646 146.227 64.6396 145.268C65.5146 144.31 69.4316 141.351 69.4316 141.351L69.5156 142.645L65.4326 147.728L68.3076 148.895V149.728L69.1406 150.478L68.9736 151.52L69.3906 152.562L68.4736 155.812L66.1816 157.062L65.5156 156.77L63.7236 159.937L62.1406 161.062L61.5986 161.812C61.5986 161.812 57.4736 161.812 56.7236 159.103Z" fill="#FFCDA1"/>
<path d="M62.5957 161.975C62.5957 161.975 62.5957 161.975 59.9357 171.725C57.2657 181.475 45.4357 210.395 45.4357 210.395C30.8457 207.645 15.1857 178.395 15.0957 171.975C15.0557 168.555 15.6257 166.725 16.1657 165.755C16.6457 164.905 17.0957 164.725 17.0957 164.725C24.9457 165.675 38.7757 190.795 40.0857 193.205V193.215C40.1557 193.335 40.1857 193.395 40.1857 193.395L56.0157 158.975L57.0757 159.455L62.5957 161.975Z" fill="#FF9500"/>
<path d="M100.517 185.93L82.2228 177.248C81.1208 176.725 80.6518 175.408 81.1748 174.306L94.5738 146.074C95.0968 144.972 96.4138 144.503 97.5158 145.026L115.81 153.708C116.912 154.231 117.381 155.548 116.858 156.65L103.459 184.882C102.936 185.984 101.619 186.453 100.517 185.93Z" fill="#AE3900"/>
<path d="M106.391 187.02L112.516 178.062L113.016 169.562L109.599 162.979L108.349 163.812L110.182 168.895L106.182 165.395L103.015 164.728L102.265 165.728L105.182 167.478L107.765 170.311L102.682 167.311L101.932 168.311L105.849 171.644L101.682 169.977L100.516 170.812L104.099 173.729L102.641 181.021C102.641 181.021 102.433 185.062 106.391 187.02Z" fill="#FFCDA1"/>
<path d="M40.2656 196.145L38.6856 192.895L37.7656 196.065L36.8456 195.725C36.8456 195.725 37.7026 191.884 37.0956 190.815C24.8486 169.27 17.8076 165.687 17.8076 165.687C25.6576 166.637 38.7756 190.795 40.0856 193.205V193.215L40.2656 196.145Z" fill="#6F003D"/>
<path d="M57.0759 159.455L40.2659 196.145L40.0859 193.215V193.205L56.0159 158.975L57.0759 159.455Z" fill="#6F003D"/>
<path d="M61.0156 167.458L57.1406 180.396C57.1406 180.396 63.2656 172.52 61.0156 167.458Z" fill="#6F003D"/>
<path d="M47.3962 175.085C47.3962 175.085 40.8262 175.085 36.2662 170.705C32.0362 166.655 31.6162 158.885 31.5762 157.775L33.0062 157.085C33.6062 159.575 35.2462 165.965 36.9762 168.685C39.1362 172.105 47.3962 175.085 47.3962 175.085Z" fill="#6F003D"/>
<path d="M54.5157 163.705L53.7057 164.985C53.5357 162.145 50.9557 159.065 49.8857 157.905C50.5857 158.125 51.2257 158.335 51.7857 158.535H51.7957C53.3057 159.965 54.5157 163.705 54.5157 163.705Z" fill="#6F003D"/>
<path d="M44.8856 151.475L44.4856 154.555C41.7956 153.695 36.8756 151.335 36.0156 145.585C36.0156 145.585 38.4356 149.115 44.8856 151.475Z" fill="#631E08"/>
<path d="M51.0598 136.479C51.1078 137.32 50.9298 138.014 50.6618 138.03C50.3938 138.045 50.1388 137.376 50.0908 136.534C50.0428 135.693 50.2208 134.998 50.4888 134.983C50.7568 134.968 51.0128 135.638 51.0598 136.479Z" fill="#6F003D"/>
<path d="M43.134 136.799C43.182 137.64 43.004 138.335 42.736 138.35C42.468 138.365 42.213 137.696 42.165 136.854C42.117 136.013 42.295 135.318 42.563 135.303C42.83 135.288 43.086 135.957 43.134 136.799Z" fill="#6F003D"/>
<path d="M48.0701 136.684C48.0701 136.684 48.4621 139.257 49.9011 140.347L49.9881 141.568L47.3721 142.309C47.3721 142.309 47.3721 141.262 48.2881 141.001C49.2041 140.739 49.2041 140.739 49.2041 140.739C49.2041 140.739 47.4591 138.297 48.0701 136.684Z" fill="#6F003D"/>
<path d="M40.3906 133.833C40.3906 133.833 41.1096 132.677 42.5466 132.802C43.9836 132.927 44.6096 133.396 44.6096 133.396C44.6096 133.396 44.1716 131.802 42.6096 131.865C41.0476 131.928 40.3906 133.833 40.3906 133.833Z" fill="#6F003D"/>
<path d="M49.1094 133.52C49.1094 133.52 49.7034 132.426 50.4534 132.364C51.2034 132.302 51.4534 132.708 51.4534 132.708C51.4534 132.708 51.3904 131.895 50.6094 131.708C49.8284 131.521 49.1094 133.52 49.1094 133.52Z" fill="#6F003D"/>
<path d="M48.1719 143.926L43.6719 144.114C43.6719 144.114 44.1099 146.645 45.7969 146.958C47.4839 147.271 48.1719 143.926 48.1719 143.926Z" fill="#6F003D"/>
<path d="M503.454 307.466C503.454 307.466 504.585 310.778 503.603 314.284C502.621 317.79 503.038 318.044 503.038 318.044L501.209 319.263C501.209 319.263 501.747 314.456 500.746 315.393C499.745 316.329 498.226 319.424 494.129 321.351C490.032 323.278 486.948 323.143 485.893 322.182C484.838 321.221 491.596 312.969 491.596 312.969L503.454 307.466Z" fill="#631E08"/>
<path d="M507.023 308.41C507.023 308.41 509.969 310.3 511.38 313.656C512.791 317.012 513.276 316.951 513.276 316.951L512.602 319.043C512.602 319.043 510.033 314.945 509.832 316.301C509.631 317.657 510.366 321.025 508.357 325.082C506.348 329.14 503.849 330.952 502.425 330.856C501.002 330.76 501.16 320.095 501.16 320.095L507.023 308.41Z" fill="#631E08"/>
<path d="M564.183 311.228C564.183 311.228 549.07 251.198 530.82 249.698C512.57 248.198 502.183 292.061 499.183 306.061" stroke="#D3C0FF" stroke-width="4" stroke-miterlimit="10" stroke-linecap="round"/>
<path d="M563.985 166.948C563.985 166.948 571.551 165.312 580.917 168.207C584.068 169.181 584.749 173.413 582.055 175.314C576.769 179.044 570.263 186.295 569.485 199.615C568.152 222.448 571.943 235.032 562.318 247.032C554.706 256.523 537.985 258.907 525.818 256.407C513.651 253.907 506.651 248.115 506.651 248.115L542.651 221.948L547.984 170.115L563.985 166.948Z" fill="#D3C0FF"/>
<path d="M522.825 185.582C519.735 194.572 516.785 201.962 516.785 201.962L502.765 207.152L482.115 214.792L478.445 208.962L507.785 193.962L512.685 184.502L522.085 166.352L528.495 153.982C532.045 156.152 527.295 172.552 522.825 185.582Z" fill="#0755E9"/>
<path d="M524.736 178.672L522.826 185.582C519.736 194.572 516.786 201.962 516.786 201.962L502.766 207.152C505.866 204.412 511.006 199.452 512.116 195.672C513.286 191.702 512.966 186.872 512.686 184.502L522.086 166.352L524.736 178.672Z" fill="#5B0237"/>
<path d="M499.053 306.917L498.955 306.945L458.616 237.792C458.616 237.792 450.616 245.959 448.783 253.125C446.992 260.126 491.79 306.399 493.867 308.54C493.307 309.387 491.045 312.928 491.429 314.354C491.867 315.979 501.117 309.354 501.117 309.354L499.053 306.917Z" fill="#F4A971"/>
<path d="M551.943 221.782C551.943 221.782 555.818 234.532 550.693 244.157C545.568 253.782 511.318 250.282 511.318 250.282C511.318 250.282 499.906 227.875 494.781 222.125L509.818 218.282L551.943 221.782Z" fill="#250B00"/>
<path d="M509.238 218.282L516.278 219.092L529.528 220.632L553.818 223.452C553.818 215.862 548.568 196.032 548.568 196.032C559.568 185.282 567.818 162.112 567.818 162.112L566.648 159.612L548.118 149.172L547.648 148.952C545.088 148.812 542.238 149.192 539.578 149.772C534.078 150.952 529.318 152.952 529.318 152.952C529.318 152.952 524.488 156.702 520.738 164.202C516.988 171.702 519.488 174.862 518.738 183.452C517.988 192.032 509.238 218.282 509.238 218.282Z" fill="#FF9500"/>
<path d="M509.238 218.282L516.278 219.092C517.888 211.612 524.838 179.552 527.818 169.532C531.198 158.162 539.318 150.282 539.318 150.282L539.578 149.772C537.528 150.212 535.578 150.772 533.948 151.292C533.248 151.512 532.608 151.722 532.048 151.922H532.038C530.358 152.512 529.318 152.952 529.318 152.952C529.318 152.952 524.488 156.702 520.738 164.202C516.988 171.702 519.488 174.862 518.738 183.452C517.988 192.032 509.238 218.282 509.238 218.282Z" fill="#0755E9"/>
<path d="M529.593 142.115C531.438 147.538 535.985 147.795 536.801 147.549C536.835 147.538 536.868 147.527 536.902 147.516L537.349 150.96L537.718 153.767L539.202 156.792L547.222 153.488C547.222 153.488 549.313 143.257 550.845 139.366C552.388 135.475 555.016 124.964 555.016 124.964C555.016 124.964 541.799 114.733 533.559 116.634C533.559 116.634 529.657 121.889 528.572 127.055L528.482 131.941C528.482 131.941 527.603 136.223 529.593 142.115Z" fill="#FFCDA1"/>
<path d="M551.185 206.872C552.495 212.782 553.815 219.652 553.815 223.452L529.525 220.632C529.595 219.572 529.725 217.422 529.935 214.542C530.045 212.942 530.185 211.122 530.355 209.142C530.655 205.382 531.035 201.042 531.515 196.562C531.785 194.072 532.085 191.542 532.405 189.032C533.735 178.552 535.555 168.572 537.895 164.452C542.315 156.702 546.385 151.332 548.115 149.172L550.825 150.472L552.255 151.162L566.645 159.612L567.815 162.112C567.815 162.112 559.565 185.282 548.565 196.032C548.565 196.032 548.705 196.572 548.945 197.512C549.045 197.912 549.165 198.382 549.305 198.912C549.795 200.892 550.485 203.712 551.175 206.802C551.185 206.822 551.185 206.852 551.185 206.872Z" fill="#0755E9"/>
<path d="M536.902 147.516L537.349 150.96C540.357 149.998 545.858 147.36 546.82 140.93C546.82 140.93 544.114 144.877 536.902 147.516Z" fill="#631E08"/>
<path d="M507.034 307.455C504.472 297.496 493.608 258.542 477.95 247.958L514.429 250.51C514.429 250.51 509.236 223.865 496.783 221.458C496.783 221.458 459.783 227.291 456.616 235.791C453.719 243.567 494.191 300.287 501.111 309.899C501.098 312.238 501.076 319.189 501.283 320.708C501.533 322.541 504.033 322.625 505.45 319.875C506.575 317.691 507.278 312.053 507.52 309.818L507.617 309.792C507.617 309.792 507.594 309.695 507.552 309.522C507.594 309.123 507.617 308.876 507.617 308.876L507.034 307.455Z" fill="#FFCDA1"/>
<path d="M530.001 132.057C530.115 132.992 530.449 133.721 530.746 133.685C531.043 133.649 531.192 132.861 531.078 131.926C530.964 130.991 530.63 130.262 530.333 130.298C530.035 130.334 529.887 131.121 530.001 132.057Z" fill="#6F003D"/>
<path d="M537.328 131.957C537.459 132.89 537.805 133.613 538.102 133.571C538.399 133.529 538.534 132.739 538.403 131.806C538.272 130.873 537.926 130.15 537.629 130.192C537.332 130.234 537.197 131.024 537.328 131.957Z" fill="#6F003D"/>
<path d="M533.203 132.142C533.203 132.142 532.764 135.019 531.155 136.237L531.057 137.602L533.982 138.431C533.982 138.431 533.982 137.261 532.958 136.968C531.934 136.675 531.934 136.675 531.934 136.675C531.934 136.675 533.886 133.946 533.203 132.142Z" fill="#6F003D"/>
<path d="M540.717 128.535C540.717 128.535 539.913 127.242 538.306 127.382C536.699 127.522 536 128.046 536 128.046C536 128.046 536.489 126.264 538.236 126.334C539.984 126.403 540.717 128.535 540.717 128.535Z" fill="#6F003D"/>
<path d="M531.667 128.651C531.667 128.651 531.003 127.428 530.164 127.358C529.325 127.288 529.046 127.742 529.046 127.742C529.046 127.742 529.116 126.833 529.989 126.624C530.864 126.415 531.667 128.651 531.667 128.651Z" fill="#6F003D"/>
<path d="M531.707 119.88C531.707 119.88 533.454 123.817 537.647 125.774C541.84 127.731 543.657 129.408 544.426 133.601C545.195 137.794 545.544 140.729 546.942 143.035C548.34 145.341 541.002 158.2 541.98 160.995C542.958 163.79 545.684 169.451 554.14 164.769C562.596 160.087 561.548 155.754 560.639 151.142C559.73 146.53 557.616 132.606 557.494 128.989C557.005 114.453 540.931 108.862 533.244 116.06C533.244 116.06 526.605 118.925 526.325 126.263C526.046 133.601 528.328 134.439 528.328 134.439C528.328 134.439 528.307 132.609 528.481 131.94C528.481 131.94 528.283 123.934 531.707 119.88Z" fill="#6F003D"/>
<path d="M500.615 211.292C500.615 211.292 492.032 212.959 489.865 214.209C487.698 215.459 485.282 217.709 484.948 220.126C484.615 222.543 485.115 223.959 485.115 223.959L486.782 223.209C486.782 223.209 486.449 220.876 487.115 219.959C487.115 219.959 487.365 222.959 488.115 223.709L489.615 223.459L489.365 221.376L490.282 223.376L492.449 223.126C492.449 223.126 491.782 221.209 492.449 219.626C492.449 219.626 492.782 222.459 493.782 223.043L494.782 222.126C494.782 222.126 494.365 220.543 494.699 220.043C495.033 219.543 500.032 220.21 503.199 218.543C506.365 216.875 500.615 211.292 500.615 211.292Z" fill="#FFCDA1"/>
<path d="M544.735 204.292L503.195 218.542L500.295 212.472L499.615 211.042L536.115 195.672C536.115 195.672 536.445 195.092 537.495 193.272C538.585 191.382 540.435 188.142 543.495 182.792C543.525 182.742 543.555 182.682 543.585 182.632C547.955 175.042 555.275 166.482 559.155 162.282C560.625 160.682 561.605 159.722 561.735 159.672C566.235 158.042 567.815 162.112 567.815 162.112C569.025 178.432 544.735 204.292 544.735 204.292Z" fill="#0755E9"/>
<path d="M511.363 222.806L461.783 230.682L452.257 210.113C451.999 209.545 451.89 208.955 451.914 208.375C452.018 206.721 453.25 205.23 455.051 204.969L481.484 201.132C483.058 200.905 484.597 201.724 485.299 203.155L494.615 222.471L510.456 220.081L510.849 221.276L511.363 222.806Z" fill="#AE3900"/>
<path d="M511.363 222.806L461.783 230.682L452.257 210.113C451.999 209.545 451.89 208.955 451.914 208.375C458.82 213.057 477.267 224.523 491.497 224.054C504.448 223.627 509.202 222.09 510.849 221.275L511.363 222.806Z" fill="#99320A"/>
<path d="M482.105 203.728L492.131 222.694C492.131 222.694 489.028 208.836 482.105 203.728Z" fill="#99320A"/>
<path d="M565.115 161.042C565.115 161.042 561.035 161.372 555.945 166.042C550.865 170.712 540.365 192.542 540.365 192.542L543.865 195.042L542.365 195.792L540.195 194.622L541.285 197.462L540.195 197.792L539.365 195.792L500.295 212.472L499.615 211.042L536.115 195.672C536.115 195.672 536.445 195.092 537.495 193.272L538.195 192.962C538.195 192.962 540.565 188.242 543.495 182.792C543.525 182.742 543.555 182.682 543.585 182.632C546.745 176.762 550.515 170.082 552.615 167.542C554.725 164.992 556.955 163.292 559.155 162.282C561.205 161.322 563.225 160.962 565.115 161.042Z" fill="#5B0237"/>
<path d="M551.186 206.872C549.786 208.452 547.376 210.302 543.306 211.602C537.226 213.552 532.286 214.282 529.936 214.542C530.046 212.942 530.186 211.122 530.356 209.142C531.756 208.682 545.486 204.292 546.616 203.102C547.666 202.002 548.996 199.492 549.306 198.912C549.796 200.892 550.486 203.712 551.176 206.802C551.186 206.822 551.186 206.852 551.186 206.872Z" fill="#5B0237"/>
<path d="M532.724 140.395C532.724 140.395 535.224 140.895 537.849 139.478C537.849 139.478 535.391 142.562 532.724 140.395Z" fill="#6F003D"/>
</svg>
